<?xml version="1.0" encoding="utf-8"?>
<!-- Generator: Adobe Illustrator 27.8.1, SVG Export Plug-In . SVG Version: 6.00 Build 0)  -->
<svg version="1.1" id="Capa_1" xmlns="http://www.w3.org/2000/svg" xmlns:xlink="http://www.w3.org/1999/xlink" x="0px" y="0px"
	 viewBox="0 0 1400 2500" style="enable-background:new 0 0 1400 2500;" xml:space="preserve">
<style type="text/css">
	.st0{fill:none;stroke:#DADADA;stroke-width:9;stroke-linecap:round;stroke-linejoin:round;}
	.st1{fill:none;stroke:#DADADA;stroke-width:9;stroke-linecap:round;stroke-linejoin:round;stroke-dasharray:45.2046,60.2727;}
	.st2{fill:#FFFFFF;}
	.st3{fill:#C6C6C6;}
	.st4{fill:none;stroke:#FFFFFF;stroke-width:9.6714;}
</style>
<g>
	<g>
		<path class="st0" d="M1031.5-361.44c-4.85,5.24-9.88,10.82-15.04,16.73"/>
		<path class="st1" d="M978.79-297.69c-36.75,50.15-73.96,115.34-96.31,195.39c-92.24,330.39,183.95,526.64,156.03,845.85
			c-32.57,372.36-469.67,503.44-471,1028c-1,393,222.51,509.65,322,752c40.91,99.64,71.75,249.04,22.77,464.93"/>
		<path class="st0" d="M905.23,3017.79c-1.82,7.18-3.73,14.44-5.73,21.76"/>
	</g>
</g>
<g>
	<ellipse class="st2" cx="567.11" cy="1698.65" rx="31.35" ry="34.65"/>
	<circle class="st3" cx="567.11" cy="1798.75" r="17.6"/>
	<g>
		<path class="st4" d="M567.09,1650.8c26.61,0.56,46.59,22.72,44.17,49.15c-1.37,14.96-7.34,28.08-15.59,40.32
			c-7.52,11.14-16.53,20.98-26.7,29.77c-1.18,1.02-2.02,1.42-3.43,0.17c-15.29-13.44-28.22-28.69-36.46-47.52
			c-4.76-10.88-7.38-22.26-5.38-34.11c3.04-18.09,13.69-29.97,31.12-35.55C558.74,1651.78,562.99,1651.52,567.09,1650.8z
			 M597,1695.3c-0.1-16.54-13.67-30.11-29.99-29.99c-16.32,0.12-29.98,13.79-29.87,29.89c0.12,16.5,13.72,30.09,30.02,30
			C583.51,1725.11,597.1,1711.49,597,1695.3z"/>
		<path class="st3" d="M567.09,1650.8c26.61,0.56,46.59,22.72,44.17,49.15c-1.37,14.96-7.34,28.08-15.59,40.32
			c-7.52,11.14-16.53,20.98-26.7,29.77c-1.18,1.02-2.02,1.42-3.43,0.17c-15.29-13.44-28.22-28.69-36.46-47.52
			c-4.76-10.88-7.38-22.26-5.38-34.11c3.04-18.09,13.69-29.97,31.12-35.55C558.74,1651.78,562.99,1651.52,567.09,1650.8z
			 M597,1695.3c-0.1-16.54-13.67-30.11-29.99-29.99c-16.32,0.12-29.98,13.79-29.87,29.89c0.12,16.5,13.72,30.09,30.02,30
			C583.51,1725.11,597.1,1711.49,597,1695.3z"/>
	</g>
</g>
<g>
	<circle class="st3" cx="1028.06" cy="787.5" r="17.6"/>
	<g>
		<path class="st4" d="M1034.09,634.05c26.61,0.56,46.59,22.72,44.17,49.15c-1.37,14.96-7.34,28.08-15.59,40.32
			c-7.52,11.14-16.53,20.98-26.7,29.77c-1.18,1.02-2.02,1.42-3.43,0.17c-15.29-13.44-28.22-28.69-36.46-47.52
			c-4.76-10.88-7.38-22.26-5.38-34.11c3.04-18.09,13.69-29.97,31.12-35.55C1025.74,635.03,1029.99,634.77,1034.09,634.05z
			 M1064,678.55c-0.1-16.54-13.67-30.11-29.99-29.99c-16.32,0.12-29.98,13.79-29.87,29.89c0.12,16.5,13.72,30.09,30.02,30
			C1050.51,708.36,1064.1,694.74,1064,678.55z"/>
		<path class="st3" d="M1034.09,634.05c26.61,0.56,46.59,22.72,44.17,49.15c-1.37,14.96-7.34,28.08-15.59,40.32
			c-7.52,11.14-16.53,20.98-26.7,29.77c-1.18,1.02-2.02,1.42-3.43,0.17c-15.29-13.44-28.22-28.69-36.46-47.52
			c-4.76-10.88-7.38-22.26-5.38-34.11c3.04-18.09,13.69-29.97,31.12-35.55C1025.74,635.03,1029.99,634.77,1034.09,634.05z
			 M1064,678.55c-0.1-16.54-13.67-30.11-29.99-29.99c-16.32,0.12-29.98,13.79-29.87,29.89c0.12,16.5,13.72,30.09,30.02,30
			C1050.51,708.36,1064.1,694.74,1064,678.55z"/>
	</g>
	<circle class="st2" cx="1034.11" cy="678.6" r="29.15"/>
</g>
</svg>
