<?xml version="1.0" encoding="utf-8"?>
<!-- Generator: Adobe Illustrator 27.8.1, SVG Export Plug-In . SVG Version: 6.00 Build 0)  -->
<svg version="1.1" id="Capa_1" xmlns="http://www.w3.org/2000/svg" xmlns:xlink="http://www.w3.org/1999/xlink" x="0px" y="0px"
	 viewBox="0 0 1400 2500" style="enable-background:new 0 0 1400 2500;" xml:space="preserve">
<style type="text/css">
	.st0{opacity:0.49;}
	.st1{fill:none;stroke:#EFEAEA;stroke-width:9;stroke-linecap:round;stroke-linejoin:round;stroke-dasharray:45.2046,60.2727;}
	.st2{fill:#FFFFFF;}
	.st3{fill:#E5DFDF;}
	.st4{opacity:0.49;fill:none;}
</style>
<g class="st0">
	<g>
		<path class="st1" d="M864.7,0c0,435.3,309.8,279,309.8,694.1c0,375.2-851.3,469.2-851.3,916.2c0,442.4,541.5,497.7,541.5,889.7"/>
	</g>
</g>
<g>
	<ellipse class="st2" cx="323" cy="1477.8" rx="31.3" ry="34.7"/>
	<circle class="st3" cx="323" cy="1577.9" r="17.6"/>
	<g>
		<path class="st3" d="M323,1430c26.6,0.6,46.6,22.7,44.2,49.2c-1.4,15-7.3,28.1-15.6,40.3c-7.5,11.1-16.5,21-26.7,29.8
			c-1.2,1-2,1.4-3.4,0.2c-15.3-13.4-28.2-28.7-36.5-47.5c-4.8-10.9-7.4-22.3-5.4-34.1c3-18.1,13.7-30,31.1-35.6
			C314.7,1430.9,318.9,1430.7,323,1430z M352.9,1474.5c-0.1-16.5-13.7-30.1-30-30s-30,13.8-29.9,29.9c0.1,16.5,13.7,30.1,30,30
			C339.4,1504.3,353,1490.6,352.9,1474.5z"/>
		<path class="st3" d="M323,1430c26.6,0.6,46.6,22.7,44.2,49.2c-1.4,15-7.3,28.1-15.6,40.3c-7.5,11.1-16.5,21-26.7,29.8
			c-1.2,1-2,1.4-3.4,0.2c-15.3-13.4-28.2-28.7-36.5-47.5c-4.8-10.9-7.4-22.3-5.4-34.1c3-18.1,13.7-30,31.1-35.6
			C314.7,1430.9,318.9,1430.7,323,1430z M352.9,1474.5c-0.1-16.5-13.7-30.1-30-30s-30,13.8-29.9,29.9c0.1,16.5,13.7,30.1,30,30
			C339.4,1504.3,353,1490.6,352.9,1474.5z"/>
	</g>
</g>
<g>
	<circle class="st3" cx="1168.3" cy="660.9" r="17.6"/>
	<g>
		<path class="st3" d="M1174.3,507.5c26.6,0.6,46.6,22.7,44.2,49.2c-1.4,15-7.3,28.1-15.6,40.3c-7.5,11.1-16.5,21-26.7,29.8
			c-1.2,1-2,1.4-3.4,0.2c-15.3-13.4-28.2-28.7-36.5-47.5c-4.8-10.9-7.4-22.3-5.4-34.1c3-18.1,13.7-30,31.1-35.5
			C1166,508.4,1170.2,508.2,1174.3,507.5z M1204.2,552c-0.1-16.5-13.7-30.1-30-30s-30,13.8-29.9,29.9c0.1,16.5,13.7,30.1,30,30
			C1190.7,581.8,1204.3,568.1,1204.2,552z"/>
		<path class="st3" d="M1174.3,507.5c26.6,0.6,46.6,22.7,44.2,49.2c-1.4,15-7.3,28.1-15.6,40.3c-7.5,11.1-16.5,21-26.7,29.8
			c-1.2,1-2,1.4-3.4,0.2c-15.3-13.4-28.2-28.7-36.5-47.5c-4.8-10.9-7.4-22.3-5.4-34.1c3-18.1,13.7-30,31.1-35.5
			C1166,508.4,1170.2,508.2,1174.3,507.5z M1204.2,552c-0.1-16.5-13.7-30.1-30-30s-30,13.8-29.9,29.9c0.1,16.5,13.7,30.1,30,30
			C1190.7,581.8,1204.3,568.1,1204.2,552z"/>
	</g>
	<circle class="st2" cx="1174.3" cy="552" r="29.2"/>
</g>
<path class="st4" d="M955.5,370.4"/>
</svg>
