<svg id="Capa_1" data-name="Capa 1" xmlns="http://www.w3.org/2000/svg" viewBox="0 0 585.83 135.47"><defs><style>.cls-1{fill:#1d1d1b;}</style></defs><path class="cls-1" d="M250.54,17.39V64.07a38.79,38.79,0,0,1,14.09-6.27c8.29-2.06,16.76-2.72,25.26-3.07a195.09,195.09,0,0,1,27.88.66c8.18.84,16.22,2.33,23.79,5.72a30.88,30.88,0,0,1,15.81,15.28c.22.45.45.88.76,1.49.65-1.31,1.2-2.46,1.8-3.59,3.94-7.39,10.29-11.77,18.07-14.36a100.09,100.09,0,0,1,22.17-4.24,265.16,265.16,0,0,1,32.26-.83c12.37.32,24.74.91,36.84,3.85,5.4,1.32,10.64,3.06,15,6.77,5.27,4.51,8,10.47,9.64,17,2.09,8.46,1.75,17.08,1.67,25.68,0,.09-.09.18-.15.31h-112c0,.84,0,1.71,0,2.58a45.52,45.52,0,0,0,2.69,14.46,12.36,12.36,0,0,0,8.1,7.71A60.7,60.7,0,0,0,409.41,136c6.47.38,13,.56,19.45.63,10.92.11,21.84,0,32.76.08q22.8.09,45.59.25h1.72v-119H536.8V152.63H535l-71.87,0c-12.33,0-24.66,0-37-.12-11.72-.09-23.44-.43-35-2.25a79.53,79.53,0,0,1-16.33-4.15A27.66,27.66,0,0,1,359,131c-.23-.5-.45-1-.73-1.61-1.07,1.79-2,3.53-3.13,5.17-4.73,7.06-11.71,10.86-19.58,13.25a109.1,109.1,0,0,1-31,4.27c-18.76.17-37.53.12-56.3.13-8,0-16-.06-24-.09-.45,0-.89,0-1.44,0v-15.4h1.41c10.77,0,21.54-.05,32.31-.11,15.05-.08,30.09-.12,45.14-.33A76.45,76.45,0,0,0,318.51,134c7.26-1.74,11.72-6.15,13.38-13.35a73,73,0,0,0-.43-35.82c-1.64-6.16-5.59-10-11.79-11.7a84,84,0,0,0-19.37-2.7,137.34,137.34,0,0,0-25,1,89.92,89.92,0,0,0-10,2.16c-4.4,1.18-7.87,4-11.17,7-2.13,1.93-2.47,4.67-2.69,7.33-.24,3-.31,6-.46,9.14l-10.63-3.89c-5.51-2-11-4.09-16.55-6.06a1.73,1.73,0,0,1-1.35-2q.1-25.14.13-50.28c0-5.33.06-10.67.1-16V17.39ZM467.16,93.21a35.66,35.66,0,0,0-1.22-11c-1.39-4.56-4.31-7.6-9-8.67a99.41,99.41,0,0,0-11.86-2.08,201.3,201.3,0,0,0-29.67-.7c-6.94.3-13.86.8-20.57,2.76-3,.88-5.71,2.29-7.48,5-2.87,4.42-3.49,9.41-3.75,14.7Z" transform="translate(-4.25 -17.39)"/><path class="cls-1" d="M139.36,151.7H111.72v-7a7,7,0,0,0-1.13.25c-7.92,3.51-16.31,5-24.84,5.85a266.62,266.62,0,0,1-44.32.26c-8.08-.55-16.12-1.61-23.7-4.76C11.2,143.58,6.52,139.12,4.86,132a12.2,12.2,0,0,1-.43-2.52c-.18-9.6-.56-19.22.87-28.77a22.77,22.77,0,0,1,4-10.47c2-2.73,5-4,8-5.21a60.2,60.2,0,0,1,19.14-3.88q16-.78,32.12-.89c12.83-.09,25.66.15,38.49.25.59,0,1.19,0,2,0-.7-3.19-1.75-5.9-4.82-7.35a33.51,33.51,0,0,0-11.8-2.92c-6-.46-12-.84-18.07-.87-21.65-.1-43.29,0-64.93,0h-2V54h6.75c11.78,0,23.56,0,35.34,0,11.12,0,22.24,0,33.36.24,12,.31,23.92,1,35.57,4.16,5.7,1.54,11,3.84,15.13,8.3a26.36,26.36,0,0,1,7.06,16.94c.33,7.22.1,14.47,0,21.71-.13,9-.39,17.9-.59,26.85q-.19,9.2-.41,18.4A9.27,9.27,0,0,1,139.36,151.7ZM110.74,95.92c-.64-.07-.89-.11-1.13-.12-5.63-.07-11.27-.22-16.9-.18-13.47.08-27-.69-40.41.55a47.67,47.67,0,0,0-15.36,3.5,9.4,9.4,0,0,0-5.71,7.41c-1,5.71-.54,11.44,0,17.13.46,4.69,3.25,7.7,7.71,9a40,40,0,0,0,6.91,1.49,187,187,0,0,0,46.33-.26,35.82,35.82,0,0,0,13.85-4.37,9.59,9.59,0,0,0,4.88-9.06c-.07-3.72-.16-7.44-.19-11.16C110.72,105.28,110.74,100.66,110.74,95.92Z" transform="translate(-4.25 -17.39)"/><path class="cls-1" d="M590.08,18V152.85h-27.7V18Z" transform="translate(-4.25 -17.39)"/><path class="cls-1" d="M179.93,151.65H152.3c0-.6-.08-1.14-.08-1.67q0-19.56,0-39.11c0-9,.14-17.92.08-26.87-.05-7.93,3.25-14.06,9.52-18.7,5.24-3.88,11.23-6,17.49-7.48A94,94,0,0,1,204,55.34c.45,0,.9,0,1.51.08v15.7c-2.91.59-5.89,1-8.78,1.81a24.93,24.93,0,0,0-12,6.88c-3.48,3.69-4.62,8.22-4.6,13.17,0,9,0,18,0,27q0,15.11-.1,30.2C180,150.65,180,151.1,179.93,151.65Z" transform="translate(-4.25 -17.39)"/><path class="cls-1" d="M221,95a18.33,18.33,0,1,1-18.2-18.42A18.3,18.3,0,0,1,221,95Z" transform="translate(-4.25 -17.39)"/></svg>