<svg xmlns="http://www.w3.org/2000/svg" viewBox="0 0 269 57.29"><defs></defs><title>bedtime</title><g id="Capa_2" data-name="Capa 2"><g id="Capa_2-2" data-name="Capa 2"><path class="cls-1" d="M0,30.78a19.25,19.25,0,0,0,9.54,5.49,18.91,18.91,0,0,0,22.7-14.86A20.07,20.07,0,0,0,24.4,1s10.22,13.62,0,25.87c0,0-9,11.24-24.43,4"/><path d="M44.64.85H64c9.3,0,11.27,5.4,11.27,9.11s-1.73,5.66-4.35,7.13C74.05,18.21,77,20.81,77,26.14c0,7.29-6.13,11.06-12.35,11.06h-20V.85Zm10.87,27.7h6.38c2.28,0,4.25-.67,4.25-3.47,0-2.13-1.23-3.31-3.8-3.31H55.51v6.78Zm0-13.54h5.73c2.28,0,3.72-.67,3.72-3,0-1.83-1.49-2.49-3.72-2.49H55.51Z"/><path d="M87.7,26.52c.24,2.92,2,5,5.13,5a5.13,5.13,0,0,0,4.23-1.83h9.42c-2,5.55-7.59,8.13-13.6,8.13-8.45,0-14.81-4.86-14.81-13.44,0-7.5,5.6-13.6,14-13.6,10.49,0,15,5.71,15,15.73Zm9.67-5.12a4.28,4.28,0,0,0-4.43-4.31c-3,0-4.73,1.54-5.19,4.31Z"/><path d="M137.83,37.25h-10V34.42h-.11c-1.3,1.63-2.87,3.48-8,3.48-7.69,0-11.4-7.2-11.4-13.66,0-6.06,2.46-13.41,11.57-13.41a9.09,9.09,0,0,1,7.44,3.47h.11V.86h10.37V37.25ZM123.26,18c-3.72,0-4.56,3.32-4.56,6.36s.85,6.4,4.56,6.4,4.56-3.33,4.56-6.4S127,18,123.26,18Z"/><path d="M265.57,35.49c.21,0,.33-.06.33-.32V33.56c0-.21-.12-.31-.33-.32v-.11h1.13c.41,0,.8.19.8.62a.74.74,0,0,1-.55.71l.37.55c.26.39.36.48.57.48v.11h-.36c-.16,0-.28-.08-.42-.31l-.53-.81h-.34v.68c0,.27.11.33.37.33v.11h-1v-.11Zm1-1.12c.35,0,.52-.22.52-.6a.49.49,0,0,0-.54-.53h-.34v1.13Zm0-2.07a2.06,2.06,0,1,0,2.06,2.06A2.06,2.06,0,0,0,266.64,32.3Zm0-.3a2.36,2.36,0,1,1-2.36,2.36A2.36,2.36,0,0,1,266.64,32Z"/><path d="M152,11.23H141.48V.86H174V11.23H163.48v26H152v-26Z"/><path d="M189,11.13h10v3.46h.1c2.09-3,5.13-4.11,8.9-4.11,2.94,0,6.08,1.46,7.34,4.07.42-.31,2.52-4.07,9.27-4.07,7,0,9.32,4.61,9.32,8.83V37.19H223.61V23.08c0-2.46-.27-4.67-3.41-4.67-2.61,0-3.51,2-3.51,4.67V37.19H206.33V23.08c0-2.46-.26-4.67-3.41-4.67-2.62,0-3.51,2-3.51,4.67V37.19H189V11.13Z"/><rect x="175.9" y="11.16" width="10.36" height="26.05"/><path d="M245.08,26.23c.25,2.93,2,5,5.15,5a5.07,5.07,0,0,0,4.22-1.85h9.42c-2,5.56-7.59,8.15-13.59,8.15-8.46,0-14.82-4.87-14.82-13.44,0-7.5,5.6-13.6,13.95-13.6,10.49,0,15,5.71,15,15.73Zm9.67-5.11a4.27,4.27,0,0,0-4.43-4.31c-3,0-4.73,1.53-5.2,4.31Z"/><path d="M52.31,48.55a2.46,2.46,0,0,0-.56-.64,2.54,2.54,0,0,0-.77-.43,2.75,2.75,0,0,0-.9-.16,2.87,2.87,0,0,0-1.46.34,2.77,2.77,0,0,0-1,.89,3.94,3.94,0,0,0-.55,1.27,6.5,6.5,0,0,0-.17,1.47,6.07,6.07,0,0,0,.17,1.42A4,4,0,0,0,47.65,54a2.74,2.74,0,0,0,1,.88,2.87,2.87,0,0,0,1.46.33,2.34,2.34,0,0,0,1.82-.71,3.21,3.21,0,0,0,.8-1.88h2.47a6,6,0,0,1-.51,2A4.51,4.51,0,0,1,53.59,56,4.45,4.45,0,0,1,52,57a5.64,5.64,0,0,1-2,.33,5.89,5.89,0,0,1-2.39-.47,5,5,0,0,1-1.79-1.27,5.56,5.56,0,0,1-1.12-1.9,7,7,0,0,1-.39-2.36,7.19,7.19,0,0,1,.39-2.4A5.74,5.74,0,0,1,45.9,47a5.14,5.14,0,0,1,1.79-1.3,5.89,5.89,0,0,1,2.39-.47,6,6,0,0,1,1.81.28,4.91,4.91,0,0,1,1.52.8,4.28,4.28,0,0,1,1.11,1.31,4.71,4.71,0,0,1,.55,1.78H52.61A2.21,2.21,0,0,0,52.31,48.55Z"/><path d="M60.26,48.89A5.74,5.74,0,0,1,61.38,47a5.14,5.14,0,0,1,1.79-1.3,6.34,6.34,0,0,1,4.79,0A5.29,5.29,0,0,1,69.74,47a5.72,5.72,0,0,1,1.11,1.94,7.19,7.19,0,0,1,.39,2.4,7,7,0,0,1-.39,2.36,5.54,5.54,0,0,1-1.11,1.9A5.08,5.08,0,0,1,68,56.82a6.34,6.34,0,0,1-4.79,0,4.94,4.94,0,0,1-1.79-1.27,5.56,5.56,0,0,1-1.12-1.9,7,7,0,0,1-.39-2.36A7.19,7.19,0,0,1,60.26,48.89Zm2.32,3.82A4,4,0,0,0,63.13,54a2.66,2.66,0,0,0,1,.88,2.87,2.87,0,0,0,1.46.33A2.83,2.83,0,0,0,67,54.83,2.77,2.77,0,0,0,68,54a3.74,3.74,0,0,0,.54-1.24,6.07,6.07,0,0,0,.17-1.42,6.5,6.5,0,0,0-.17-1.47A3.72,3.72,0,0,0,68,48.55a2.71,2.71,0,0,0-1-.89,3.28,3.28,0,0,0-2.91,0,2.68,2.68,0,0,0-1,.89,3.94,3.94,0,0,0-.55,1.27,6.5,6.5,0,0,0-.17,1.47A6.07,6.07,0,0,0,62.58,52.71Z"/><path d="M78.16,45.46v9.43h5.63V57H75.61V45.46Z"/><path d="M96.12,48.55a2.5,2.5,0,0,0-.57-.64,2.42,2.42,0,0,0-.77-.43,2.75,2.75,0,0,0-.9-.16,2.89,2.89,0,0,0-1.46.34,2.77,2.77,0,0,0-1,.89,3.72,3.72,0,0,0-.54,1.27,6,6,0,0,0-.17,1.47,5.58,5.58,0,0,0,.17,1.42A3.74,3.74,0,0,0,91.45,54a2.74,2.74,0,0,0,1,.88,2.89,2.89,0,0,0,1.46.33,2.32,2.32,0,0,0,1.82-.71,3.21,3.21,0,0,0,.8-1.88H99a6,6,0,0,1-.51,2A4.63,4.63,0,0,1,97.4,56a4.59,4.59,0,0,1-1.56.94,5.6,5.6,0,0,1-2,.33,5.89,5.89,0,0,1-2.39-.47,5,5,0,0,1-1.79-1.27,5.56,5.56,0,0,1-1.12-1.9,7,7,0,0,1-.39-2.36,7.19,7.19,0,0,1,.39-2.4A5.74,5.74,0,0,1,89.7,47a5.23,5.23,0,0,1,1.79-1.3,5.89,5.89,0,0,1,2.39-.47,6,6,0,0,1,1.81.28,4.91,4.91,0,0,1,1.52.8,4.28,4.28,0,0,1,1.11,1.31,4.71,4.71,0,0,1,.55,1.78H96.41A2.19,2.19,0,0,0,96.12,48.55Z"/><path d="M106.72,45.46V49.9h4.68V45.46h2.54V57H111.4V52h-4.68v5h-2.54V45.46Z"/><path d="M118.7,48.89A5.91,5.91,0,0,1,119.82,47a5.23,5.23,0,0,1,1.79-1.3,6.34,6.34,0,0,1,4.79,0,5.19,5.19,0,0,1,1.78,1.3,5.74,5.74,0,0,1,1.12,1.94,7.19,7.19,0,0,1,.39,2.4,7,7,0,0,1-.39,2.36,5.56,5.56,0,0,1-1.12,1.9,5,5,0,0,1-1.78,1.27,6.34,6.34,0,0,1-4.79,0,5,5,0,0,1-1.79-1.27,5.56,5.56,0,0,1-1.12-1.9,7,7,0,0,1-.39-2.36A7.19,7.19,0,0,1,118.7,48.89ZM121,52.71a3.74,3.74,0,0,0,.54,1.24,2.74,2.74,0,0,0,1,.88,3.39,3.39,0,0,0,2.92,0,2.74,2.74,0,0,0,1-.88,3.74,3.74,0,0,0,.54-1.24,5.58,5.58,0,0,0,.17-1.42,6,6,0,0,0-.17-1.47,3.72,3.72,0,0,0-.54-1.27,2.77,2.77,0,0,0-1-.89,3.3,3.3,0,0,0-2.92,0,2.77,2.77,0,0,0-1,.89,3.72,3.72,0,0,0-.54,1.27,6,6,0,0,0-.17,1.47A6.07,6.07,0,0,0,121,52.71Z"/><path d="M136.59,45.46l4.82,7.76h0V45.46h2.38V57h-2.55l-4.81-7.75h0V57h-2.38V45.46Z"/><path d="M158.89,56.9a4.33,4.33,0,0,1-1.77.34,4.71,4.71,0,0,1-1.47-.23,3.31,3.31,0,0,1-1.19-.67,3.22,3.22,0,0,1-.79-1.09,3.37,3.37,0,0,1-.29-1.46,3,3,0,0,1,.21-1.13,3.23,3.23,0,0,1,.57-.92A4.28,4.28,0,0,1,155,51a8.5,8.5,0,0,1,1-.57,7.24,7.24,0,0,1-.79-1.13,2.7,2.7,0,0,1-.31-1.33,2.26,2.26,0,0,1,.25-1.08,2.62,2.62,0,0,1,.67-.84,2.94,2.94,0,0,1,1-.53,3.25,3.25,0,0,1,1.12-.19,4.13,4.13,0,0,1,1.24.18,2.82,2.82,0,0,1,1,.53,2.53,2.53,0,0,1,.69.86,2.86,2.86,0,0,1,.25,1.2,2.6,2.6,0,0,1-.59,1.72A5.14,5.14,0,0,1,159,51l1.49,1.84a2.84,2.84,0,0,0,.27-.68,4.15,4.15,0,0,0,.15-.7h2a6,6,0,0,1-.35,1.51,5.39,5.39,0,0,1-.76,1.34L164.14,57h-2.82l-.94-1.15A5.08,5.08,0,0,1,158.89,56.9Zm-2.31-4.67a3,3,0,0,0-.52.42,2.12,2.12,0,0,0-.36.54,1.51,1.51,0,0,0-.14.65,1.38,1.38,0,0,0,.14.59,1.44,1.44,0,0,0,.36.48,1.82,1.82,0,0,0,.53.33,1.67,1.67,0,0,0,.62.12,2.12,2.12,0,0,0,1.08-.28,4,4,0,0,0,.87-.74l-2-2.42A5.71,5.71,0,0,0,156.58,52.23Zm2.15-5a1,1,0,0,0-.74-.32,1.09,1.09,0,0,0-.73.28,1,1,0,0,0-.31.74,1.49,1.49,0,0,0,.3.94c.19.26.39.52.61.79a4.38,4.38,0,0,0,.84-.66,1.37,1.37,0,0,0,.34-1A1.09,1.09,0,0,0,158.73,47.19Z"/><path d="M174.7,54.18a1.78,1.78,0,0,0,.56.65,2.69,2.69,0,0,0,.82.38,3.91,3.91,0,0,0,1,.12,4.78,4.78,0,0,0,.73-.06,2.57,2.57,0,0,0,.73-.22,1.68,1.68,0,0,0,.57-.44,1.13,1.13,0,0,0,.22-.73,1,1,0,0,0-.3-.76,2.36,2.36,0,0,0-.78-.48,6.82,6.82,0,0,0-1.1-.34L175.87,52a11,11,0,0,1-1.27-.39,4.51,4.51,0,0,1-1.1-.61,2.94,2.94,0,0,1-.78-.93,2.87,2.87,0,0,1-.3-1.36,2.93,2.93,0,0,1,.38-1.54,3.47,3.47,0,0,1,1-1.1,4.39,4.39,0,0,1,1.4-.65,5.9,5.9,0,0,1,1.55-.21,7,7,0,0,1,1.74.21A4.28,4.28,0,0,1,180,46a3.48,3.48,0,0,1,1,1.16,3.6,3.6,0,0,1,.38,1.71h-2.47a2.09,2.09,0,0,0-.21-.86,1.5,1.5,0,0,0-.5-.53,2.19,2.19,0,0,0-.7-.28,4.77,4.77,0,0,0-.87-.08,2.68,2.68,0,0,0-.62.07,1.67,1.67,0,0,0-.55.22,1.49,1.49,0,0,0-.42.41,1.15,1.15,0,0,0-.16.61A1.06,1.06,0,0,0,175,49a1.13,1.13,0,0,0,.51.38,6.24,6.24,0,0,0,1,.36l1.76.45.9.24a4.08,4.08,0,0,1,1.14.54,3.34,3.34,0,0,1,1,1,2.76,2.76,0,0,1,.42,1.59,3.67,3.67,0,0,1-.31,1.48,3.23,3.23,0,0,1-.92,1.17A4.34,4.34,0,0,1,179,57a7,7,0,0,1-2.09.28,7.17,7.17,0,0,1-1.85-.24,4.64,4.64,0,0,1-1.59-.73A3.74,3.74,0,0,1,172.42,55a3.85,3.85,0,0,1-.39-1.85h2.46A2.13,2.13,0,0,0,174.7,54.18Z"/><path d="M185.38,48.89A5.72,5.72,0,0,1,186.49,47a5.33,5.33,0,0,1,1.79-1.3,6.34,6.34,0,0,1,4.79,0,5.19,5.19,0,0,1,1.78,1.3A5.74,5.74,0,0,1,196,48.89a7.19,7.19,0,0,1,.39,2.4,7,7,0,0,1-.39,2.36,5.56,5.56,0,0,1-1.12,1.9,5,5,0,0,1-1.78,1.27,6.34,6.34,0,0,1-4.79,0,5.12,5.12,0,0,1-1.79-1.27,5.54,5.54,0,0,1-1.11-1.9,7,7,0,0,1-.39-2.36A7.19,7.19,0,0,1,185.38,48.89Zm2.32,3.82a4,4,0,0,0,.54,1.24,2.83,2.83,0,0,0,1,.88,3.39,3.39,0,0,0,2.92,0,2.66,2.66,0,0,0,1-.88,4,4,0,0,0,.55-1.24,6.07,6.07,0,0,0,.17-1.42,6.5,6.5,0,0,0-.17-1.47,3.94,3.94,0,0,0-.55-1.27,2.68,2.68,0,0,0-1-.89,3,3,0,0,0-3.89.89,3.93,3.93,0,0,0-.54,1.27,6.5,6.5,0,0,0-.17,1.47A6.07,6.07,0,0,0,187.7,52.71Z"/><path d="M203.89,45.46l2.71,7.95h0l2.56-7.95h3.58V57h-2.38v-8.2h0L207.52,57h-2l-2.84-8.12h0V57h-2.38V45.46Z"/><path d="M220.8,45.46l2.71,7.95h0l2.56-7.95h3.58V57H227.3v-8.2h0L224.43,57h-2l-2.84-8.12h0V57h-2.38V45.46Z"/><path d="M236.68,45.46V57h-2.55V45.46Z"/><path d="M249.78,45.46V47.6h-6.11v2.48h5.61v2h-5.61v2.83h6.24V57h-8.78V45.46Z"/><path d="M260.08,45.46a3.68,3.68,0,0,1,1.4.25,3.29,3.29,0,0,1,1.07.69,3,3,0,0,1,.68,1,3.22,3.22,0,0,1,.23,1.24,3.56,3.56,0,0,1-.42,1.77,2.76,2.76,0,0,1-1.41,1.13v0a1.79,1.79,0,0,1,.78.39,2.18,2.18,0,0,1,.5.63,3.05,3.05,0,0,1,.29.8,6.87,6.87,0,0,1,.12.88c0,.18,0,.4,0,.65s0,.5.06.76a4.4,4.4,0,0,0,.13.74,1.69,1.69,0,0,0,.27.59h-2.55a4.82,4.82,0,0,1-.26-1.31c0-.51-.08-1-.14-1.46a2.31,2.31,0,0,0-.55-1.33,1.91,1.91,0,0,0-1.38-.42h-2.55V57h-2.54V45.46Zm-.91,5.23a2,2,0,0,0,1.32-.38,1.64,1.64,0,0,0,.43-1.27,1.53,1.53,0,0,0-.43-1.22,1.94,1.94,0,0,0-1.32-.38h-2.78v3.25Z"/><circle cx="181.05" cy="5.21" r="5.21"/><polyline points="127.31 42.1 124.79 42.1 123.43 44.2 125.21 44.2"/></g></g></svg>