<svg xmlns="http://www.w3.org/2000/svg" viewBox="0 0 376.34 116.32"><defs></defs><g id="Capa_2" data-name="Capa 2"><g id="Capa_2-2" data-name="Capa 2"><path class="cls-1" d="M62.83,69.74q-3.31-2.22-9-2.22H38.61V85.14H53.83q5.69,0,9-2.29a7.49,7.49,0,0,0,3.3-6.58A7.36,7.36,0,0,0,62.83,69.74Z"/><path class="cls-1" d="M133,52.93a11,11,0,0,0-7.72,3q-3.22,3-3.46,9.46h22.26q0-6.47-3.12-9.46A11,11,0,0,0,133,52.93Z"/><path class="cls-1" d="M332.12,55.21a8.58,8.58,0,0,0-7.76,4.44q-2.7,4.44-2.7,13.57,0,16.62,10.46,16.61t10.45-16.61q0-9.12-2.69-13.57A8.59,8.59,0,0,0,332.12,55.21Zm.28,25.63h-.57c-1-1.47-1.18-6.16-1.18-7.62,0-2.23.18-6.91,1.38-8.89l.09-.13.08.13c1.21,2,1.4,6.66,1.4,8.89C333.6,74.68,333.39,79.37,332.4,80.84Z"/><path class="cls-1" d="M373,53.77a37.76,37.76,0,0,0-9.79-14.25,40.16,40.16,0,0,0-14.39-8.25,56.47,56.47,0,0,0-33.49,0A40.29,40.29,0,0,0,301,39.52c-.87.77-1.69,1.6-2.47,2.44a32.67,32.67,0,0,0-2-2.81c-6-7.51-14.72-10.42-24.08-10.42A29.92,29.92,0,0,0,256.56,33a25.1,25.1,0,0,0-3,2.12,23.73,23.73,0,0,0-2.3-1.72,28.78,28.78,0,0,0-16.07-4.7,29.56,29.56,0,0,0-16.87,4.87,18.21,18.21,0,0,0-13-4.87,24.38,24.38,0,0,0-7.06,1V21.93c0-5.58-1.25-11.13-4.94-15.47a19.17,19.17,0,0,0-28.7,0c-3.69,4.34-4.94,9.89-4.94,15.47V37.2a44.14,44.14,0,0,0-8-4.64,48.05,48.05,0,0,0-19.78-3.83,49.89,49.89,0,0,0-16.29,2.58,38.35,38.35,0,0,0-13.95,8.34c-.38.36-.76.73-1.12,1.1.08-1.1.12-2.19.12-3.28a32,32,0,0,0-2.41-12.42A27.58,27.58,0,0,0,89.87,14.2a38.36,38.36,0,0,0-13.6-6.62A67.87,67.87,0,0,0,57.93,5.4H26.32C19.23,5.4,12.09,7,6.9,12.17S0,24.6,0,31.75V88.31c0,7.15,1.65,14.39,6.9,19.58s12.33,6.78,19.42,6.78H60c11.38,0,23.33-2.17,32.33-9.6a36.54,36.54,0,0,0,4.79-4.76,36.61,36.61,0,0,0,4.49,5.09,38.63,38.63,0,0,0,13.95,8.34,50.16,50.16,0,0,0,16.29,2.58A81.72,81.72,0,0,0,148,114.93a41.56,41.56,0,0,0,12.35-4.28,29.44,29.44,0,0,0,3.26-2.13,16.43,16.43,0,0,0,1,1.33,19.24,19.24,0,0,0,27.31,1.49,21.63,21.63,0,0,0,28.81-1.07,19.38,19.38,0,0,0,4.45-7.52,19.38,19.38,0,0,0,4.45,7.52,21.53,21.53,0,0,0,29.93,0,19.28,19.28,0,0,0,4.46-7.52,19.38,19.38,0,0,0,4.45,7.52,21.55,21.55,0,0,0,29.94,0,19.15,19.15,0,0,0,3.1-4.3,40,40,0,0,0,13.86,7.81,56.47,56.47,0,0,0,33.49,0,40.16,40.16,0,0,0,14.39-8.25A37.84,37.84,0,0,0,373,91.28a50.57,50.57,0,0,0,3.3-18.82A50.1,50.1,0,0,0,373,53.77ZM86.64,98.14q-9.14,7.55-26.6,7.55H26.32c-5.92,0-10.28-1.4-13.11-4.19S9,94.31,9,88.31V31.75c0-6,1.41-10.4,4.23-13.19s7.19-4.18,13.11-4.18H57.93a58.81,58.81,0,0,1,15.88,1.84,29.67,29.67,0,0,1,10.45,5,18.44,18.44,0,0,1,5.68,7.28,23,23,0,0,1,1.73,9c0,5-1,9.08-3.11,12.29s-5.54,5.4-10.39,6.6v.25q8.47,1.52,13,7.48T95.77,78.8A24,24,0,0,1,86.64,98.14Zm77.25-22.26c-1.73,1.61-4.51,2.41-8.36,2.41H121.86c.31,4.23,1.55,7.59,3.75,10.08a11.28,11.28,0,0,0,8.93,3.74A13.6,13.6,0,0,0,140,91,50.39,50.39,0,0,0,146,87.81,39.05,39.05,0,0,1,151.1,85a10.68,10.68,0,0,1,4.43-1,6.53,6.53,0,0,1,5.19,2.66,9.09,9.09,0,0,1,2.19,6,10.11,10.11,0,0,1-1.67,5.53,14.92,14.92,0,0,1-5.37,4.69,32.66,32.66,0,0,1-9.68,3.3,73.94,73.94,0,0,1-14.3,1.2,40.88,40.88,0,0,1-13.37-2.09,29.34,29.34,0,0,1-10.73-6.4,28.85,28.85,0,0,1-7.15-10.92A42.71,42.71,0,0,1,98.1,72.46a42.34,42.34,0,0,1,2.54-15.34,28.81,28.81,0,0,1,7.15-10.91,29.5,29.5,0,0,1,10.73-6.41,41.15,41.15,0,0,1,13.37-2.08,38.92,38.92,0,0,1,16.09,3,30.15,30.15,0,0,1,10.78,7.79,32.23,32.23,0,0,1,5.89,9.84,27.47,27.47,0,0,1,1.83,9.25C166.48,71.53,165.62,74.27,163.89,75.88ZM189.27,94.4q0,6.33-2.81,9.64a10.19,10.19,0,0,1-15,0q-2.81-3.3-2.81-9.64V21.93q0-6.35,2.81-9.65a10.19,10.19,0,0,1,15,0q2.82,3.3,2.81,9.65Zm105.84,0c0,4.22-1.07,7.44-3.18,9.64a12.6,12.6,0,0,1-17,0c-2.11-2.2-3.18-5.42-3.18-9.64v-25c0-4.06-.62-6.94-1.86-8.62s-3.2-2.55-5.83-2.55c-2,0-3.86,1.1-5.44,3.3a14.43,14.43,0,0,0-2.38,8.63V94.4q0,6.33-3.16,9.64a12.61,12.61,0,0,1-17,0q-3.17-3.3-3.17-9.64v-25c0-4.06-.62-6.94-1.88-8.62s-3.18-2.55-5.82-2.55c-2,0-3.86,1.1-5.44,3.3a14.43,14.43,0,0,0-2.38,8.63V94.4q0,6.33-3.16,9.64a12.6,12.6,0,0,1-17,0c-2.13-2.2-3.18-5.42-3.18-9.64V50.14q0-12.42,11.21-12.42,5,0,7.42,3t3,9.25H216q6-12.3,19.26-12.29A19.79,19.79,0,0,1,246.35,41a15,15,0,0,1,6.4,9.57q3.63-6.85,8.5-9.83a21.09,21.09,0,0,1,11.2-3c7.63,0,13.31,2.33,17.05,7s5.61,10.88,5.61,18.57Zm69.59-6.48a28.87,28.87,0,0,1-7.45,10.92,31,31,0,0,1-11.19,6.4,47.53,47.53,0,0,1-27.88,0A31,31,0,0,1,307,98.84a28.69,28.69,0,0,1-7.47-10.92,41.39,41.39,0,0,1-2.64-15.46,41,41,0,0,1,2.64-15.34A28.65,28.65,0,0,1,307,46.21a31.13,31.13,0,0,1,11.18-6.41,47.75,47.75,0,0,1,27.88,0,31.17,31.17,0,0,1,11.19,6.41,28.83,28.83,0,0,1,7.45,10.91,40.83,40.83,0,0,1,2.65,15.34A41.18,41.18,0,0,1,364.7,87.92Z"/><path class="cls-1" d="M60.31,49.07a7.86,7.86,0,0,0,2.52-5.78,8.25,8.25,0,0,0-2.25-6.15q-2.25-2.22-7-2.22h-15V51.54h15A9.22,9.22,0,0,0,60.31,49.07Z"/></g></g></svg>