<svg xmlns="http://www.w3.org/2000/svg" viewBox="0 0 234.57 237.03"><title>burger-king</title><g id="Capa_2" data-name="Capa 2"><g id="Capa_2-2" data-name="Capa 2"><path d="M100.49,15.21c-41.18,9.88-51.92,42.35-52.94,48.3C46.66,68.75,49.93,67.35,51,67c27.85-10.33,72.26-22.76,119-31.9,5-1,8.83-.83,5.92-4.64C167.36,19.25,141.68,5.33,100.49,15.21ZM61.54,56.56c-.62,3.15-5.11,3.26-4.16-.84C62.59,33.38,86.3,22.47,86.3,22.47,64.85,38.09,62,54.42,61.54,56.56Zm97.55-30.77c5.27,7.47-13.15,9-13.15,9s6.74-2.25,5.4-7.75S134,15,122,14.61C122,14.61,149.49,12.21,159.09,25.79Z"/><path d="M149.14,196c36.94-13.08,47.65-40.59,48.2-46.6.48-5.29-2.09-4.23-5.48-3.38-32.86,8.16-73,19.51-113.42,35.84-4.71,1.91-8.36,2.79-5.87,6.08C78.45,195.67,109.22,210.11,149.14,196Zm31.17-39.39c.9-4.27,7.3-2.48,5.94,1.7-7.41,22.83-33.19,32.1-33.19,32.1C175.82,175.23,179.84,158.81,180.31,156.58Z"/><path d="M124.45,216.72A100,100,0,0,1,45,188.84c-5.6,2.39-12.63,5.14-12.63,5.14V174.2a108,108,0,0,1-19.71-54.89C9,69.74,39,26.75,81.78,10.17a127,127,0,0,1,69.15-5.68,118.53,118.53,0,1,0,76.7,160.34l-20.36-10.5C192.45,187.81,162.48,213,124.45,216.72Z"/><path d="M164.1,111.06c-2.78,20.67,10.16,31.08,25.23,30,19.4-1.41,25.18-10.39,25.18-19.71V102l-24.61,5.24V114s-.18,6.15,9,3.71V122s-.27,4.7-7.6,4.52c-6.07-.15-11.39-4.43-9.77-16.1s11.94-15.1,18.36-14.29,12.68,3.19,14.66-4.16c1-3.71-.73-8-7.3-9.52a42.24,42.24,0,0,0-9-1.06C182,81.3,166.75,91.31,164.1,111.06Z"/><path d="M66.65,76.61s.07-4.85-5.39-3c-1,.34-5.51,2-5.51,2v27.52s.35,13.6,15.39,8.87c13.93-4.38,13.25-15.27,13.37-18.31s0-21.79,0-21.79.21-6-5.73-4.26c-2.36.67-5.06,1.57-5.06,1.57V97.39s.45,4.6-3.93,5.17c-3.48.45-3.14-3.82-3.14-3.82Z"/><path d="M53.06,87.62C51.84,77,39.24,82,39.24,82L25.88,86.94v42.35s8.65-3.6,17.52-7.53c9.05-4,11.79-8.2,11.34-14.94-.39-5.84-7-7.75-7-7.75A11.86,11.86,0,0,0,53.06,87.62ZM36.32,90.2s6.52-3,6.29,2.36-6.29,6.74-6.29,6.74Zm7.08,18.53c-.23,6.18-7.08,7.64-7.08,7.64V105.81S43.63,102.33,43.4,108.73Z"/><path d="M67.33,172.87a9.36,9.36,0,0,0,13.24-13.24L69.14,148.2l12.22-20.26c3-5.08,1.57-9.61-2.6-11.26s-9-.73-11.23,3.09l-15.26,25.9v-21L34.75,132.1v57.84s7.39-2.87,13.14-5.39c4.61-2,4.38-8.31,4.38-8.31V157.82Z"/><path d="M86.64,120v50.31l10.48-3.74c8.09-2.85,7.94-11.08,7.94-11.08V105.14l-10.48,3.74C86.49,111.73,86.64,120,86.64,120Z"/><path d="M115.39,68.19c-.11-8.31-9.21-9.21-16.51-6.63C96.5,62.4,87.54,65,87.54,65V104.8l6.63-2.24s4.15-1.13,4.15-6.63V86.72l9.44,9.43s4.36,3.94,8.2-.56c3.25-3.82-.9-7.63-.9-7.63l-6.18-6.29S115.53,78.19,115.39,68.19ZM104.61,72a9.62,9.62,0,0,1-6.4,8.53v-11S105,67,104.61,72Z"/><path d="M228.78,144.91a3.24,3.24,0,0,0-3.24-3.24H220.1V153.2h2.25v-5h1.24l2.89,5h2.26l-2.9-5.07A3.23,3.23,0,0,0,228.78,144.91ZM225,146.52h-2.66V143.3H225a1.61,1.61,0,1,1,0,3.22Z"/><path d="M224.12,136.8a10.64,10.64,0,1,0,10.45,10.64A10.55,10.55,0,0,0,224.12,136.8Zm0,18.66a8,8,0,1,1,7.88-8A7.95,7.95,0,0,1,224.12,155.46Z"/><path d="M188.85,73.47V65.9l8.76,9.7s3.82,4.27,8.2.21c3.47-3.21-.9-7.52-.9-7.52l-5.84-7.4s6.18-3,6.07-11.57c-.11-8.33-8.43-10.21-15.73-8.51-2.38.55-11.34,2.1-11.34,2.1V81l6.62-1.44S188.85,79,188.85,73.47Zm-.56-24.6s6.67-2.36,6.29,2.69c-.45,6-6.29,7.42-6.29,7.42Z"/><path d="M144.6,60.89a4.84,4.84,0,0,0,4.83-4.83c0-2.67-2.19-4.45-4.83-4.83-20.11-2.92-27.18,12.13-27.75,21s3.49,21.12,18.2,19.43,14.38-11,14.38-11V65L134,68.64a26.59,26.59,0,0,0-.11,4.83c.11,3.59,5.61,2.13,5.61,2.13s.23,4.16.11,4.61c-.31,1.24-3,2.92-6.62,2.35-3-.46-4.77-3.62-4.49-9.88C129.21,57.29,144.6,60.89,144.6,60.89Z"/><path d="M171.3,52.71s4.11-.7,4.13-4.74V43.29L152.35,48V86.49l19-4.35s4.12-.7,4.13-4.74c0-1,0-4.69,0-4.69L163,75.35V67.94l7.41-1.72a4.54,4.54,0,0,0,3.77-4.6V57.83L163,60.18V54.62Z"/><path d="M144.82,102.89v18.76L129.66,104c-4.61-5.17-9.77-3.15-9.77-3.15l-9.25,2.81V162.2l8.09-2.89c8.23-2.5,8.2-10.7,8.2-10.7V127.15S140.77,143,144.3,146.92a9.74,9.74,0,0,0,8.53,3.28,8.81,8.81,0,0,0,7.94-8.72V90.71l-8.09,2C144.6,94.53,144.82,102.89,144.82,102.89Z"/></g></g></svg>