<svg xmlns="http://www.w3.org/2000/svg" viewBox="0 0 481.41 72.56"><defs></defs><title>fravega</title><g data-name="Capa 2"><g data-name="Capa 2"><path d="M48.14,39.31s.41-2.68-2.71-2.68H22.61C19.48,36.63,20,34,20,34l1-5.28A3.19,3.19,0,0,1,24.39,26H50.27C52.53,26,53,23.35,53,23.35l1-4.39s.43-2.71-2.71-2.71h-39a3.16,3.16,0,0,0-3.43,2.68L0,63.81s-.49,2.63,2.65,2.63h8.71c2.27,0,2.69-2.63,2.69-2.63l2.86-14.65a3.19,3.19,0,0,1,3.42-2.73H44.61c2.27,0,2.68-2.63,2.68-2.63l.85-4.49ZM235,56.66c-3.15,0-2.67-2.68-2.67-2.68l1.05-5.58a3.18,3.18,0,0,1,3.42-2.72h25.57C264.6,45.68,265,43,265,43l.84-4.5s.42-2.67-2.71-2.67H239c-3.15,0-2.65-2.64-2.65-2.64l.84-4.52A3.2,3.2,0,0,1,240.63,26h27.14c2.27,0,2.69-2.64,2.69-2.64l1-4.39s.41-2.71-2.71-2.71h-40.3A3.16,3.16,0,0,0,225,18.93l-8.74,44.88s-.49,2.63,2.66,2.63h42.61c2.27,0,2.68-2.63,2.68-2.63l1-4.4s.42-2.75-2.7-2.75Zm73-20.47a3.21,3.21,0,0,0-3.42,2.75l-.82,4.48s-.49,2.68,2.66,2.68h8.06s2.37-.09,1.84,2.49l-.73,3.73s-.37,3.2-2.41,3.77a47.1,47.1,0,0,1-13.47,1.72c-8.24,0-18.51-3.38-18.51-14.62s14.59-18.4,25.22-18.4c0,0,9.08-.15,14.81,3.65a3.06,3.06,0,0,0,3.35.35L332,24s3.15-1.53.76-3.31c0,0-7.12-5.73-24.66-5.73s-39.4,8.21-41.63,28.83c0,0-3.57,23.44,32,23.86a99.38,99.38,0,0,0,24.87-3.59s4.32-1.11,4.88-4.55L332,39.33s.69-3.14-2.86-3.14ZM177.81,66.41c-2.42,0-3.2-2.57-3.2-2.57l-18-44.91s-1.25-2.69,1.41-2.69h10.61a4.28,4.28,0,0,1,4,2.82l11.18,29.59s.84,2.83,2.87,0l21-29.72s1.95-2.69,4.76-2.69h8.94s3.77.07,1.67,2.75l-33.68,44.9a6.2,6.2,0,0,1-4.73,2.52Zm219.27-2.67-18-44.82a4.2,4.2,0,0,0-3.82-2.69h-6.45c-2.46,0-4.55,2.69-4.55,2.69L328.61,63.81c-2.37,3,1.53,2.63,1.53,2.63h9.72a6,6,0,0,0,4.56-2.6l4.62-6.2a5.08,5.08,0,0,1,4-2.22h22.63a3.79,3.79,0,0,1,3.51,2.64l2.15,5.78s.78,2.54,3.19,2.54H395S398.23,66.69,397.08,63.74ZM371.51,46H361.13c-3.46,0-1.93-2.23-1.93-2.23l7.33-10.13c3.14-4.45,4.24,0,4.24,0l3.37,10.13C375,46.37,371.5,46,371.5,46ZM136.75,16.25c-2.27.29-4.11,2.67-4.11,2.67L100.2,59.76c-2.46,3.05-4.4,0-4.4,0l-7-11.07c-2.15-3.35,2.44-4.85,2.44-4.85,5.27-1.72,12.49-5.83,12.65-15.31.2-13.39-23.8-12.28-23.8-12.28H59.24a3.16,3.16,0,0,0-3.42,2.68L47.09,63.81s-.5,2.63,2.65,2.63h8.69c2.28,0,2.7-2.63,2.7-2.63L64,48.75a3.16,3.16,0,0,1,3.42-2.69H70c2,0,3.14,2.51,3.14,2.51l8.6,15.17s1.18,2.69,3.77,2.69h22.79a6,6,0,0,0,4.55-2.59l4.62-6.2a5.08,5.08,0,0,1,4-2.22h22.64a3.77,3.77,0,0,1,3.5,2.64l2.15,5.78s.78,2.54,3.2,2.54h10.53s3.2.31,2-2.64l-18-44.82a4.2,4.2,0,0,0-3.82-2.69h-.44l-6.45,0ZM139.92,46H129.55c-3.47,0-1.94-2.23-1.94-2.23l7.33-10.13c3.15-4.45,4.23,0,4.23,0l3.37,10.13C143.43,46.37,139.92,46,139.92,46ZM78,36.54l-8.36.09C66.53,36.63,67,34,67,34l1.11-5.64a3.18,3.18,0,0,1,3.41-2.73h7.13s7.75-.41,9.6,2.17a4,4,0,0,1,.67,3.57c-.53,2.41-2.88,5-10.9,5.17ZM153,0h-6.7V0a5.39,5.39,0,0,0-3.75,2.13l-5,6.44c-1.78,2.28,1.43,2.35,1.43,2.35h6.71v0a5.36,5.36,0,0,0,3.74-2.13l5-6.43C156.22.07,153,0,153,0Z"/><path d="M428.83,71c25.51-6.7,52.29-17.26,52.53-32.11,0,0,3.47-19.54-51.05-30.13,0,0-10-2.07-12,.12-1.86,2,5.86,4.77,5.86,4.77,14.62,5.75,30.86,14.67,31.28,26,0,0,3.57,14.13-31.06,27.69,0,0-7.2,2.57-6.25,4.66.71,1.55,7.89-.33,10.7-1"/><path d="M422.63,64.94c14.79-5.76,28.83-14,28.88-24.59,0,0,2.26-12.7-28.54-25-1-.33-4.92-1.65-6.8.33-1.55,1.64,3,4.7,3,4.7,5.93,4.82,11.63,11.45,11.43,19.11-.19,6.89-5.53,13.09-12.84,18.3,0,0-6.89,4.52-5.22,7.15,1.92,3.06,7.37.86,10.1-.06"/></g></g></svg>