<svg xmlns="http://www.w3.org/2000/svg" viewBox="0 0 475 91.35"><title>john-deere</title><g id="Capa_2" data-name="Capa 2"><g id="Capa_2-2" data-name="Capa 2"><path d="M94,9.89a100.13,100.13,0,0,0-86.78,0,93,93,0,0,0,0,71.56,99.4,99.4,0,0,0,43.42,9.9A99.34,99.34,0,0,0,94,81.45a92.81,92.81,0,0,0,7.15-35.75A92.64,92.64,0,0,0,94,9.89Zm-3,68.72a95.18,95.18,0,0,1-40.36,8.88A95.24,95.24,0,0,1,10.2,78.61a89.07,89.07,0,0,1,0-65.88,96.14,96.14,0,0,1,80.67,0,88.63,88.63,0,0,1,6.33,33A88.55,88.55,0,0,1,90.92,78.61Z"/><path d="M88.59,14.86a93.28,93.28,0,0,0-76,0,85.93,85.93,0,0,0,0,61.63,92.9,92.9,0,0,0,38,8.1,92.87,92.87,0,0,0,38-8.1l0,0a44.5,44.5,0,0,0-6-7.61l-.71-.23c-7.27-2.23-12-3.91-14.14-5-2.9-1.51-5.94-5.16-6.28-5.57a44.78,44.78,0,0,0-8.9.12l-1.73.23a35.21,35.21,0,0,1-10,.34,46.33,46.33,0,0,1-6.64-1.81c-3.51-1.15-7.1-2.33-11.21-2.32h-.16l.07.14c.93,1.82,4.62,7.32,9.23,8.83a6.47,6.47,0,0,1,2.08.77S36,68,36.47,68.94A55.28,55.28,0,0,1,17.56,54.4v0c0-.11-.19-1.81-.23-2.18,4.27-1.59,13.88-2.51,15-2.62h.08l0-.09a37.69,37.69,0,0,1,4-13.53.89.89,0,0,0,.1-.36.4.4,0,0,0-.06-.22.63.63,0,0,0-.44-.29L29.48,34c0-.11-.65-2-.71-2.16a117.35,117.35,0,0,1,13.85-4.11,3.42,3.42,0,0,0,.72-2,1.46,1.46,0,0,0-.72-1.25c-2.36-1.6-9.78-.64-17.29,2.24l0-.07a43.51,43.51,0,0,1,6.41-3.86l.08,0,0-.08c-.56-1.9-4.23-3.35-4.64-3.5,0-.07,0-.11,0-.16,3.73-.25,6.2,1.49,7,2.74l0,.06.07,0a22.26,22.26,0,0,1,4-.9h.11l0-.11c-.6-3.19-3.65-5.33-4.69-6l.07-.11a9.41,9.41,0,0,1,7.67,6l0,.08h.07a22.45,22.45,0,0,1,2.92.28h.08l0-.07a5.41,5.41,0,0,0,.44-2.18,9.73,9.73,0,0,0-3-6.49.38.38,0,0,1,.09-.13C46.74,14,48,17.37,48,20.54a21.12,21.12,0,0,1-1,5.69l-.16.56,7.44-.9A17,17,0,0,1,49,30.07s-3.14-.4-3.14-.4h-.08l0,.08c-.21.65-2,6.46-2.06,10.73A4.81,4.81,0,0,0,45,44.13c1.57,1.52,4.19,1.6,6,1.53,7.75-.28,13.81.2,18,1.44l.25.07,0-.06A4.13,4.13,0,0,0,69.76,45c0-1.88-.75-4.67-3.27-7.82l.06-.07c.41.23,7.22,4.1,8.13,9.93l-3.26,1.33.1.1c2.87,3,3.86,6.65,4.66,9.56.63,2.3,1.39,3.78,2.39,4.64,1.16,1,5.56,3.11,6.89,3.72,1.09,1.57,3,4.49,4.35,6.76h0a85.38,85.38,0,0,0,4.5-27.42A85.83,85.83,0,0,0,88.59,14.86Z"/><path d="M117.82,58A30.72,30.72,0,0,0,127,59.49c5.15,0,8.37-.7,10.16-2.52,1.49-1.49,2.08-4,2-7.66V24.83h7.63V50.37c-.12,11.3-5.61,16.13-18.41,16.13a52.66,52.66,0,0,1-10.54-1Z"/><path d="M151.27,49.59c0,7.8,5.11,16.91,19.52,16.91s19.53-9.11,19.53-16.91c0-10.9-7.3-17.42-19.53-17.42S151.27,38.69,151.27,49.59ZM170.79,59.8c-4.45,0-11.93-1.37-11.93-10.55,0-6.59,4.35-10.37,11.93-10.37s11.92,3.78,11.92,10.37C182.71,58.43,175.25,59.8,170.79,59.8Z"/><polygon points="222.24 32.95 222.24 45.99 202.44 45.99 202.44 32.95 194.83 32.95 194.83 65.73 202.44 65.73 202.44 52.69 222.24 52.69 222.24 65.73 229.84 65.73 229.84 32.95 222.24 32.95"/><polygon points="343.15 59.02 343.15 52.69 360.7 52.69 360.7 45.99 343.15 45.99 343.15 39.66 365.84 39.66 365.84 32.95 335.55 32.95 335.55 65.73 365.84 65.73 365.84 59.02 343.15 59.02"/><polygon points="378.53 59.02 378.53 52.69 396.09 52.69 396.09 45.99 378.53 45.99 378.53 39.66 401.22 39.66 401.22 32.95 370.92 32.95 370.92 65.73 401.22 65.73 401.22 59.02 378.53 59.02"/><polygon points="452.3 59.02 452.3 52.69 469.86 52.69 469.86 45.99 452.3 45.99 452.3 39.66 475 39.66 475 32.95 444.7 32.95 444.7 65.73 475 65.73 475 59.02 452.3 59.02"/><path d="M297.61,31.56V59h10.76c5.84,0,15.63-1.8,15.63-13.84,0-8.64-5.7-13.58-15.63-13.58Zm10.76-6.77c14.57,0,23.29,7.77,23.29,20.76,0,9.32-6.11,20.18-23.29,20.18H290V24.79h18.4"/><path d="M441.21,65.73H432l-9.17-12H413.9v12h-7.61V33H427.8c7.41,0,11.82,3.93,11.82,10.52a9.78,9.78,0,0,1-8,9.77Zm-13-18.68c1.58,0,4.21-.5,4.21-3.74,0-2.33-1.53-3.65-4.21-3.65h-13.9V47Z"/><polygon points="263.43 65.73 243.64 43.38 243.64 65.73 236.03 65.73 236.03 32.95 243.58 32.95 263.43 55.07 263.43 32.95 271.04 32.95 271.04 65.73 263.43 65.73"/></g></g></svg>