<svg id="Capa_1" data-name="Capa 1" xmlns="http://www.w3.org/2000/svg" viewBox="0 0 539.28 126.63"><defs><style>.cls-1{fill:#1d1d1b;}</style></defs><path class="cls-1" d="M110.27,78.06c0-.32,0-.57,0-.81q0-16.53,0-33.06a1.34,1.34,0,0,0-.79-1.38c-1.47-.8-2.88-1.69-4.33-2.52s-3.21-1.8-4.81-2.72c-2.06-1.18-4.11-2.4-6.16-3.6-.9-.52-1.8-1-2.72-1.54a.81.81,0,0,0-.68,0c-2.36,1.34-4.7,2.7-7,4.06l-5.65,3.26-5.43,3.14c-.36.21-.7.4-.63.91a4.24,4.24,0,0,1,0,.71q0,19.36,0,38.74a1.54,1.54,0,0,0,.86,1.54q1.22.66,2.43,1.35l2.07,1.24c0-.3,0-.46,0-.63V47.25c0-.19,0-.38,0-.57,0-.35.07-.59.54-.72a8.26,8.26,0,0,0,1.65-.89c2-1.15,4.06-2.3,6.08-3.48.62-.36,1.19-.81,1.81-1.18.4-.24.85-.38,1.26-.6.68-.37,1.35-.75,2-1.16a.74.74,0,0,1,.84,0q3.6,2.09,7.21,4.16c1.49.86,3,1.67,4.5,2.52.48.28.94.58,1.39.9a.69.69,0,0,1,.22.39,2.16,2.16,0,0,1,0,.51q0,16.68,0,33.34a1.2,1.2,0,0,1-.69,1.2l-3.75,2.06-4.88,2.71c-.46.26-.92.55-1.39.79a.44.44,0,0,1-.42,0c-.08-.06,0-.27,0-.41s.08-.37.08-.55v-33a.81.81,0,0,0-.67-.94,5.49,5.49,0,0,1-.63-.34l-.2-.14a1.53,1.53,0,0,0-2.19-.11,2.63,2.63,0,0,1-.77.46c-.84.29-1,.89-1,1.7q0,19.53,0,39.07A1.16,1.16,0,0,0,89,94.15c1.63.92,3.24,1.86,4.87,2.8,1.89,1.08,3.78,2.14,5.66,3.23,1.59.91,3.16,1.85,4.74,2.75.86.49,1.75.93,2.61,1.42.66.39,1.28.84,1.95,1.22,2,1.2,4.06,2.38,6.1,3.55l6.35,3.66,2.26,1.33a.66.66,0,0,0,.82,0c.52-.35,1.07-.66,1.62-1a1.14,1.14,0,0,0,.65-1.09,15.14,15.14,0,0,1,0-1.65,1,1,0,0,0-.58-1c-.89-.5-1.77-1-2.66-1.55l-3.72-2.14-5.42-3.14c-1-.55-2-1-2.94-1.61-2.5-1.45-5-3-7.49-4.4-1.81-1-3.65-2-5.47-3.07-.61-.35-1.19-.74-1.91-1.18.34-.22.6-.39.87-.55,1.34-.79,2.67-1.58,4-2.35l3.62-2c.75-.43,1.5-.86,2.23-1.31a.57.57,0,0,1,.69,0c1,.6,2,1.16,3,1.75l5.73,3.32,2.86,1.64,1.91,1.1,7,4,4.94,2.87c1.28.74,2.55,1.51,3.85,2.21a1,1,0,0,1,.59,1.08c0,3,0,5.93,0,8.9,0,2,0,4,0,6.06a.61.61,0,0,1-.27.43c-.81.5-1.64.95-2.45,1.44a7,7,0,0,0-.67.55s-.06.09-.1.1A22.53,22.53,0,0,0,130,123.7c-.93.5-1.79,1.11-2.7,1.63s-2,1.06-2.93,1.61a.78.78,0,0,1-.88,0l-7-4.06c-2.14-1.24-4.3-2.46-6.44-3.7-1.91-1.11-3.77-2.29-5.71-3.34-2.13-1.16-4.16-2.47-6.29-3.62-1.68-.91-3.28-1.94-4.93-2.89-1.24-.72-2.52-1.37-3.76-2.08-.8-.45-1.56-1-2.36-1.44-2.46-1.42-4.92-2.82-7.38-4.23l-2.9-1.69-4.8-2.8L69,95.41q-2.59-1.5-5.2-3c-.8-.45-1.62-.85-2.4-1.31s-1.6-1-2.35-1.49a1.32,1.32,0,0,0-1.64-.06c-2.1,1.24-4.22,2.46-6.34,3.68C49.7,94,48.32,94.81,47,95.6c-2.37,1.37-4.74,2.76-7.12,4.11a1.47,1.47,0,0,0-.83,1.43c0,6.66,0,13.33,0,20a5.73,5.73,0,0,0,.18,1.15c0,.08.12.17.21.22,1.17.69,2.35,1.37,3.53,2a21.48,21.48,0,0,0,1.92,1.09c1.22.56,2.27,1.39,3.45,2,1.47.79,2.9,1.68,4.36,2.5.67.38,1.38.68,2,1.06s1.34.86,2,1.29a3.45,3.45,0,0,1,.66.35c.62.58,1.13.35,1.76,0,1.94-1.18,3.92-2.28,5.88-3.42,2.39-1.39,4.76-2.79,7.15-4.17s4.76-2.72,7.14-4.09c.63-.36.64-.41,0-.75-1.48-.8-2.88-1.73-4.35-2.54a.6.6,0,0,0-.69,0q-2.81,1.67-5.63,3.31c-1.17.68-2.37,1.32-3.54,2Q62,124.94,59,126.74a1.23,1.23,0,0,1-1.53,0c-.74-.52-1.6-.86-2.39-1.32s-1.32-.84-2-1.24l-5.8-3.35c-.82-.47-1.64-1-2.47-1.41a.73.73,0,0,1-.42-.71c0-5,0-10,0-15a.79.79,0,0,1,.46-.75c1.57-.9,3.12-1.83,4.69-2.73,2-1.13,3.92-2.23,5.88-3.35.78-.44,1.56-.88,2.33-1.34a.74.74,0,0,1,.84,0c1.6.94,3.21,1.86,4.83,2.79l7,4c1.56.89,3.1,1.82,4.65,2.72l4,2.33,3.75,2.19,2.91,1.67c2.25,1.3,4.49,2.62,6.75,3.91,1.24.71,2.52,1.36,3.76,2.07,1.39.81,2.73,1.68,4.11,2.49s2.58,1.4,3.84,2.13,2.56,1.55,3.85,2.31c.87.51,1.77,1,2.65,1.46.51.3,1,.64,1.52.94,1.57.92,3.13,1.86,4.73,2.73,1.1.6,2.16,1.27,3.25,1.9s2.23,1.3,3.37,1.91a1,1,0,0,0,.78,0c1.85-1,3.68-2.09,5.51-3.14l3-1.75c1.2-.7,2.39-1.42,3.6-2.12,2.05-1.17,4.1-2.35,6.16-3.5a.85.85,0,0,0,.47-.84V100.87a1,1,0,0,0-.56-1c-2.56-1.45-5.1-2.92-7.65-4.39l-3.18-1.86-4.14-2.42c-.77-.45-1.52-1-2.33-1.34s-1.42-.86-2.15-1.24-1.51-.85-2.27-1.29L118.57,86c-1.58-.9-3.18-1.8-4.76-2.71a8.94,8.94,0,0,1-.85-.59c.39-.26.71-.49,1.06-.69,1-.59,2.06-1.16,3.09-1.75,2-1.17,4.12-2.32,6.13-3.56a1,1,0,0,1,1.37,0c.54.37,1.15.64,1.72,1l8.8,5.08c1.58.92,3.15,1.85,4.74,2.76.85.49,1.74.93,2.6,1.42s1.38.86,2.08,1.27c2.78,1.62,5.56,3.22,8.34,4.83.18.1.38.16.55.26a1.36,1.36,0,0,1,.76,1.36q0,16.65,0,33.29a1.18,1.18,0,0,1-.71,1.19c-1.39.77-2.76,1.6-4.14,2.4L145.09,134c-2.21,1.27-4.42,2.56-6.64,3.83l-4.1,2.34-2.86,1.65-5.81,3.38a6.22,6.22,0,0,0-1,.58,1.07,1.07,0,0,1-1.43,0c-1.4-.83-2.85-1.57-4.25-2.37-.82-.47-1.59-1-2.4-1.49s-1.8-1-2.69-1.56l-7.7-4.44L99,131.73q-3.7-2.14-7.4-4.3a.86.86,0,0,0-1,0l-3.84,2.24-3.93,2.27c-1.5.87-3,1.77-4.51,2.64l-7.59,4.34-3.89,2.24c-1,.58-1.93,1.21-2.92,1.77q-2.73,1.58-5.51,3.1a.61.61,0,0,1-.51,0c-1.89-1.07-3.78-2.17-5.66-3.25l-4.17-2.41-4.41-2.53-10.37-5.95L30.23,130c-.65-.38-1.31-.73-1.95-1.12a.61.61,0,0,1-.28-.41c0-3,0-6,0-9V94.44a1.25,1.25,0,0,1,.77-1.2c1-.53,1.87-1.13,2.81-1.67.68-.39,1.38-.72,2.06-1.1l4.05-2.32,4.42-2.56c.87-.51,1.72-1,2.59-1.55s1.7-.91,2.53-1.39c1-.59,2-1.23,3-1.81,1.63-.94,3.29-1.84,4.93-2.77l3.19-1.84c.66-.39,1.29-.81,2-1.15a.87.87,0,0,0,.56-.91q0-10.78,0-21.55V37.51c0-.8.14-1,.87-1.26a9.15,9.15,0,0,0,1.19-.65c1.83-1.06,3.65-2.14,5.47-3.2.84-.49,1.69-.94,2.53-1.42,1.47-.83,2.94-1.66,4.4-2.51s2.7-1.61,4.07-2.4c2-1.15,4-2.28,6-3.44,1.24-.72,2.46-1.49,3.7-2.22a17.33,17.33,0,0,1,1.7-.9.76.76,0,0,1,1,.22,2.32,2.32,0,0,0,.77.44,8.77,8.77,0,0,1,1,.44c.36.22.67.55,1,.77,1.35.78,2.72,1.53,4.07,2.3,1.57.91,3.12,1.84,4.69,2.75,1.79,1.05,3.55,2.15,5.38,3.1.76.39,1.41.93,2.17,1.31s1.55.85,2.31,1.29,1.5.88,2.25,1.3c1,.53,1.92,1,2.86,1.57s1.81,1.07,2.7,1.64a.82.82,0,0,1,.27.45,1.46,1.46,0,0,1,0,.47q0,16.67,0,33.34a1.2,1.2,0,0,1-.69,1.23c-2.4,1.34-4.77,2.74-7.14,4.11l-2.86,1.67A2.92,2.92,0,0,1,110.27,78.06ZM60.88,111.22a8.51,8.51,0,0,0,0-1.13.87.87,0,0,0-.31-.56c-.7-.44-1.42-.83-2.14-1.21a.58.58,0,0,0-.48,0c-.71.39-1.42.79-2.11,1.23a.8.8,0,0,0-.32.56,18.93,18.93,0,0,0,0,2.26.94.94,0,0,0,.38.64c.57.38,1.19.7,1.79,1a.94.94,0,0,0,1,0,8.92,8.92,0,0,1,.85-.49C60.63,113.12,61.22,112.43,60.88,111.22Z" transform="translate(-28 -19.43)"/><path class="cls-1" d="M434.11,68.13h15c0,1.19,0,2.34,0,3.49a30.79,30.79,0,0,0,.06,3.33l.29.15c.08-.16.16-.33.25-.48,3.22-5.08,8-7.45,13.85-7.74a19.52,19.52,0,0,1,9.58,1.75,14.12,14.12,0,0,1,6.67,6.46c.12.22.24.44.37.66,0,0,.1,0,.23.12.25-.37.52-.75.76-1.14A15.41,15.41,0,0,1,492,67.23a23.51,23.51,0,0,1,12.05.8,14.45,14.45,0,0,1,8.67,8.69,28.88,28.88,0,0,1,1.9,9.4c.05,1.2.06,2.4.07,3.6v29.53c-5.25,0-10.38,0-15.6,0,0-.47-.07-.87-.07-1.27V89.81a14.47,14.47,0,0,0-.59-4.57,6.26,6.26,0,0,0-6.1-4.62,12.43,12.43,0,0,0-4.11.53,8.36,8.36,0,0,0-5.43,6.19,18.81,18.81,0,0,0-.59,5q0,12.87,0,25.73v1.17H466.64c0-.42-.06-.82-.06-1.21V91.5a22.38,22.38,0,0,0-.52-5.35,9.35,9.35,0,0,0-.63-1.87A5.89,5.89,0,0,0,460,80.64a11.8,11.8,0,0,0-4.3.48c-2.91,1-4.47,3.15-5.26,6a25.9,25.9,0,0,0-.74,7.12c0,7.88,0,15.77,0,23.65v1.2c-.73.23-14.39.29-15.59.07Z" transform="translate(-28 -19.43)"/><path class="cls-1" d="M329.27,119.21H314.92c0-2.19,0-4.37-.06-6.59-.56,0-.67.41-.87.66a19.65,19.65,0,0,1-12.66,7.07,23.69,23.69,0,0,1-10.83-1c-8-2.55-13-8-15.55-15.87a31.48,31.48,0,0,1-1.17-12.8,29.76,29.76,0,0,1,4.63-13.55,21.43,21.43,0,0,1,14.4-9.87,28,28,0,0,1,5.18-.35,22.92,22.92,0,0,1,8.5,1.57A15.17,15.17,0,0,1,312.8,73a2,2,0,0,0,.65.53A22.48,22.48,0,0,0,313.6,70c0-1.16,0-2.33,0-3.5V45.14c.78-.27,14.23-.34,15.58-.1,0,.39.09.82.09,1.24v72.93ZM302.12,80.55c-1,.1-2,.13-3,.32a11.12,11.12,0,0,0-8.74,7,15.26,15.26,0,0,0-.26,11,11.11,11.11,0,0,0,8.31,7.51,15.23,15.23,0,0,0,6.75.12A11.18,11.18,0,0,0,314,99a15.56,15.56,0,0,0,.27-9.93,11.15,11.15,0,0,0-5.39-6.9A13.92,13.92,0,0,0,302.12,80.55Z" transform="translate(-28 -19.43)"/><path class="cls-1" d="M382.57,110.52c-.3.36-.53.66-.78.93a26.84,26.84,0,0,1-12.21,7.78,28,28,0,0,1-9.7,1.31,29.59,29.59,0,0,1-17.5-6,24.66,24.66,0,0,1-9.45-16,27.9,27.9,0,0,1,1.55-15.31,25.08,25.08,0,0,1,13.76-13.87,31.45,31.45,0,0,1,14.59-2.48A22.85,22.85,0,0,1,374.5,70.6,22.19,22.19,0,0,1,383,81.54a33.56,33.56,0,0,1,2,10.81c.07,1.83,0,3.66,0,5.49,0,.18,0,.37-.06.66-.44,0-.87.08-1.3.08H348.25a11,11,0,0,0,1.35,3.92,12.1,12.1,0,0,0,13.19,6,13.38,13.38,0,0,0,7.78-4.68l1-1.13s.06,0,.21-.06ZM348.22,87.81c1,.24,20.32.21,21.08,0a3.18,3.18,0,0,0,.06-.62,9.39,9.39,0,0,0-5.38-8.1,10.38,10.38,0,0,0-6.26-.9,11,11,0,0,0-6.4,3A10.33,10.33,0,0,0,348.22,87.81Z" transform="translate(-28 -19.43)"/><path class="cls-1" d="M234.1,98.58c.16.63.26,1.09.4,1.53a12,12,0,0,0,13.12,8.51,13.39,13.39,0,0,0,8.95-4.94c.31-.36.6-.73,1-1.17l10.93,8c-.25.32-.44.6-.66.85a26.49,26.49,0,0,1-14,8.34,30.18,30.18,0,0,1-22-2.86,24.09,24.09,0,0,1-12.54-16.26c-1.74-7.4-1-14.55,3.06-21.13a25.46,25.46,0,0,1,13.35-10.65,30.89,30.89,0,0,1,14-1.8c9.21.94,15.62,5.73,19.07,14.35A30.4,30.4,0,0,1,270.89,92c.05,1.83,0,3.66.05,5.49,0,.28,0,.56-.06,1-.44,0-.86.1-1.28.1H234.1Zm.07-10.77c.9.23,20.21.22,21.07,0a8.2,8.2,0,0,0,0-1,9.33,9.33,0,0,0-5.17-7.64,10.81,10.81,0,0,0-6.52-1A10.66,10.66,0,0,0,234.21,87,7.44,7.44,0,0,0,234.17,87.81Z" transform="translate(-28 -19.43)"/><path class="cls-1" d="M529.74,83.58,521.35,75a24.34,24.34,0,0,1,4-3.1,33.23,33.23,0,0,1,12.52-4.57,42.13,42.13,0,0,1,11.6-.14,22.9,22.9,0,0,1,8,2.32,16.14,16.14,0,0,1,7.88,9.4,31.6,31.6,0,0,1,1.59,7.46,83,83,0,0,1,.36,8.78q0,11.45,0,22.89v1.18H553c0-.31-.1-.63-.1-1,0-1.45,0-2.9,0-4.35,0-.33-.07-.65-.12-1.15a5.51,5.51,0,0,0-.53.51,16.3,16.3,0,0,1-10.31,6.67,22.82,22.82,0,0,1-15.75-1.7,14,14,0,0,1-8-11.12,15.71,15.71,0,0,1,2.52-11.46A16.1,16.1,0,0,1,527,90.53a33.22,33.22,0,0,1,9.4-2.76,95.08,95.08,0,0,1,15-1l1,0a1.69,1.69,0,0,0,.31-.11,6.88,6.88,0,0,0-.61-3.47,9,9,0,0,0-6.36-5.34,14.74,14.74,0,0,0-12,2.15,33.94,33.94,0,0,0-3.45,2.79A5.28,5.28,0,0,0,529.74,83.58ZM552.8,96.83a4.55,4.55,0,0,0-.58-.08c-2.77.07-5.55,0-8.32.24a27.52,27.52,0,0,0-4.9.94,9,9,0,0,0-4.47,2.52,5.19,5.19,0,0,0,.88,8,7.36,7.36,0,0,0,2.21,1,13.8,13.8,0,0,0,11.77-2.18,7.88,7.88,0,0,0,2.35-2.68,8.31,8.31,0,0,0,1.07-3.49A23.77,23.77,0,0,0,552.8,96.83Z" transform="translate(-28 -19.43)"/><path class="cls-1" d="M171.23,45.1c.75-.23,15-.28,16.15-.07a4.72,4.72,0,0,1,.12.59c0,.25,0,.5,0,.75v57.81c1.1.1,2.17,0,3.22,0h25.63c.2.76.27,13.27.1,14.86-.66.21-44,.27-45.23,0Z" transform="translate(-28 -19.43)"/><path class="cls-1" d="M428.1,73.21,418.65,83c-.33-.33-.6-.63-.89-.9A11.27,11.27,0,0,0,407.24,79a4.92,4.92,0,0,0-2.65,1.37,3.25,3.25,0,0,0,.68,5.4A13.66,13.66,0,0,0,408.43,87c2.68.69,5.4,1.25,8.09,1.91a26.59,26.59,0,0,1,7.13,2.72,12.54,12.54,0,0,1,6.53,10.53,16.83,16.83,0,0,1-1,7.7,14.67,14.67,0,0,1-7.23,7.55,27.82,27.82,0,0,1-8.35,2.62,40.2,40.2,0,0,1-8.2.53,32.56,32.56,0,0,1-13.7-3.19,19.76,19.76,0,0,1-4.22-2.84c-.28-.24-.53-.52-.87-.85L396,103.17l1,1.08c3.87,4,8.57,5.21,13.93,4a7.09,7.09,0,0,0,2.24-1,2.91,2.91,0,0,0,.48-4.58,6.83,6.83,0,0,0-1.76-1.24A22.53,22.53,0,0,0,407,100c-2.79-.66-5.58-1.32-8.35-2.06a17.72,17.72,0,0,1-4.65-2,12,12,0,0,1-5.89-8.4,17.54,17.54,0,0,1,.56-8.86,15.06,15.06,0,0,1,6.36-8,21.92,21.92,0,0,1,8.42-3.23A33.49,33.49,0,0,1,421,68.83a19.57,19.57,0,0,1,6.21,3.72C427.56,72.82,427.9,73.05,428.1,73.21Z" transform="translate(-28 -19.43)"/></svg>