<?xml version="1.0" encoding="UTF-8"?>
<svg width="140px" height="18px" viewBox="0 0 140 18" version="1.1" xmlns="http://www.w3.org/2000/svg" xmlns:xlink="http://www.w3.org/1999/xlink">
    <!-- Generator: Sketch 55.2 (78181) - https://sketchapp.com -->
    <title>Palmero</title>
    <desc>Created with Sketch.</desc>
    <g id="Sistema-Online" stroke="none" stroke-width="1" fill="none" fill-rule="evenodd">
        <g id="Landing" transform="translate(-113.000000, -1021.000000)" fill="#0D0D0D">
            <g id="Clientes" transform="translate(0.000000, 980.000000)">
                <g id="Group" transform="translate(113.000000, 34.000000)">
                    <path d="M94.0568235,23.9013976 L88.3344706,23.9013976 C88.003,21.0866917 87.6777059,18.3258094 87.3524118,15.5652211 C87.2927059,15.5731623 87.233,15.5811035 87.173,15.5890447 C86.3741765,18.3305153 85.5750588,21.0716917 84.7556471,23.88228 L81.2206471,23.88228 C80.3977059,21.1252211 79.5562353,18.3066917 78.7150588,15.4884564 L78.5341765,15.5125741 C78.2482941,18.2681623 77.9621176,21.0237506 77.6668235,23.869927 L71.8821176,23.869927 C72.8127059,18.3393388 73.7282941,12.8963976 74.6497647,7.41963291 L80.7712353,7.41963291 C81.5041765,10.0552211 82.248,12.7305153 83.0456471,15.5996329 C83.8435882,12.7684564 84.5818235,10.149927 85.3400588,7.46051526 L91.5068235,7.46051526 C92.3456471,12.8678682 93.1903529,18.3143388 94.0568235,23.9013976 Z M128.295971,15.6640741 C128.312147,17.2017211 129.296265,18.2981917 130.678912,18.31878 C132.076853,18.3399564 133.182735,17.12378 133.166265,15.5828976 C133.150676,14.1343682 132.061559,12.9343682 130.748618,12.91878 C129.309206,12.901427 128.279206,14.0546623 128.295971,15.6640741 Z M130.678618,7.01348585 C134.589206,6.80319173 138.203912,9.31142703 139.318324,13.0678976 C141.110676,19.1105447 136.458029,24.8243682 130.126265,24.38378 C125.981265,24.0955447 122.659794,21.4602506 121.961853,17.6926035 C120.6295,10.501427 126.104794,6.74466232 130.678618,7.01348585 Z M112.956765,14.5696329 C114.945,14.5496329 115.57,14.1613976 115.508529,13.109927 C115.447647,12.0711035 114.606176,11.6737506 112.956765,11.95228 L112.956765,14.5696329 Z M112.944118,23.899927 L107.222059,23.899927 C106.904412,22.7402211 106.857353,9.04845644 107.185294,7.3628682 C109.453235,7.3628682 111.753824,7.33580938 114.053529,7.37492703 C115.071765,7.39227997 116.112353,7.43345644 117.100882,7.65257409 C120.607353,8.42933879 121.638235,11.1058094 121.136471,14.15728 C120.871176,15.7678682 119.805588,16.7693388 118.138529,17.2761035 C119.577353,19.4884564 120.962059,21.6181623 122.435294,23.8834564 L115.734118,23.8834564 C114.914706,22.3875741 114.040882,20.7925741 113.166765,19.1975741 C113.092647,19.2108094 113.018235,19.2240447 112.944118,19.23728 L112.944118,23.899927 Z M49.6068529,13.4392506 L49.4121471,13.465427 C49.0595,14.8774859 48.7068529,16.2895447 48.3303824,17.7963094 L50.6606765,17.7963094 C50.2921471,16.2730741 49.9495,14.8560153 49.6068529,13.4392506 Z M58.8339118,23.9160153 L52.3827353,23.9160153 C52.1709706,23.2701329 51.9671471,22.6498388 51.7345,21.9410153 L47.2753824,21.9410153 C47.0797941,22.5839564 46.8900882,23.2071917 46.6824412,23.8898388 L40.2292059,23.8898388 C42.2165588,18.3830741 44.1845,12.9286623 46.1674412,7.43395644 L52.9956765,7.43395644 C54.9095,12.8374859 56.8465588,18.3060153 58.8339118,23.9160153 Z M34.7863824,11.8418388 C34.4705,12.7456623 34.4878529,13.6533094 34.7760882,14.5615447 C36.5569706,14.5836035 37.3331471,14.157427 37.3366883,13.2021329 C37.3402059,12.23478 36.5525588,11.79978 34.7863824,11.8418388 Z M34.5587353,19.0344859 L34.5587353,23.8962506 L28.5846176,23.8962506 L28.5846176,7.47801526 C28.9790294,7.43919173 29.3687353,7.36977997 29.7587353,7.36801526 C32.0155,7.35742703 34.2755,7.29477997 36.5281471,7.39095644 C37.6866765,7.4403682 38.8628529,7.68154467 39.9769706,8.01625056 C41.4572647,8.4603682 42.3790294,9.57595644 42.7719706,11.0488976 C43.1740294,12.55478 43.1781471,14.0991917 42.7896176,15.6133094 C42.4357941,16.992427 41.5766765,18.00978 40.2072647,18.4256623 C39.1913824,18.7341917 38.1199118,18.8900741 37.0616765,19.0171329 C36.3122647,19.1068388 35.5437353,19.0344859 34.5587353,19.0344859 Z M95.0908235,23.8616035 L95.0908235,7.4516035 L105.794647,7.4516035 C106.074647,8.86777997 105.903765,10.2766035 105.905824,11.8416035 L100.812294,11.8416035 C100.784353,12.4145447 100.763765,12.8371917 100.734941,13.425427 L105.358765,13.425427 L105.358765,17.7145447 L100.795529,17.7145447 L100.795529,19.3848388 L105.892882,19.3848388 C106.255529,20.9380741 105.989647,22.350427 106.109647,23.8616035 L95.0908235,23.8616035 Z M65.3622647,18.4926623 L71.2952059,18.4926623 C71.4993235,20.3056035 71.3663824,22.0226623 71.3846176,23.7150153 C70.1728529,24.0370741 63.1055,24.1364859 59.5263824,23.9032506 C59.2449118,22.8273682 59.1557941,9.78325056 59.4249118,7.44913291 L65.3622647,7.44913291 L65.3622647,18.4926623 Z M21.7061765,8.34907409 L0.978235294,8.34907409 C0.658823529,9.55407409 0.61,21.4676035 0.915588235,23.0134859 L21.7061765,23.0134859 L21.7061765,8.34907409 Z M22.6902941,23.8978976 L4.47641924e-13,23.8978976 L4.47641924e-13,7.56054467 C1.11941176,7.2593682 19.5647059,7.13730938 22.6902941,7.4193682 L22.6902941,23.8978976 Z M1.61426471,9.01742703 L10.9527941,9.01742703 L10.9527941,22.1238976 C9.92367647,22.457427 3.61926471,22.5344859 1.61426471,22.2191917 L1.61426471,9.01742703 Z M11.7888824,22.2871623 L11.7888824,9.01451526 L20.8427059,9.01451526 L20.8427059,22.2871623 L11.7888824,22.2871623 Z" id="Palmero"></path>
                </g>
            </g>
        </g>
    </g>
</svg>