<svg xmlns="http://www.w3.org/2000/svg" viewBox="0 0 168.99 145.5"><defs></defs><title>sealy</title><g id="Capa_2" data-name="Capa 2"><g id="Capa_2-2" data-name="Capa 2"><path d="M31.16,107.11a43.09,43.09,0,0,1-13.73-9.4C11.07,91,7.85,82.39,7.85,72.09c0-22.94,19.89-31.57,30.58-36.21C41.91,34.36,75.25,21.13,83,18.59L35.1,3.37C28.21,1.08,23.81,0,20.17,0A17.64,17.64,0,0,0,12.5,1.81C8.71,3.6,4.61,6.34,3.08,13.1,1.5,20.06,0,63.79,0,71.87c0,27.28.5,57.2,6.44,66.74,3,4.84,8.54,7.17,16.4,6.87A50,50,0,0,0,36,143L54,137.42l28.63-8.84c-9.34-2.9-46.46-18.88-50.91-21.19Z"/><path d="M165.91,13.1c-1.53-6.76-5.63-9.5-9.43-11.3C150.42-.95,146-.64,133.9,3.37L86.06,18.58c7.85,2.57,42.32,16.35,44.5,17.3,10.69,4.64,30.58,13.27,30.58,36.21,0,10.3-3.22,18.92-9.58,25.62a43.2,43.2,0,0,1-13.73,9.4l-.6.29c-4.53,2.34-41.58,18.28-50.9,21.18L133,143a50.18,50.18,0,0,0,13.14,2.48c7.86.3,13.39-2,16.41-6.87,5.94-9.54,6.44-39.45,6.44-66.74C169,63.79,167.49,20.07,165.91,13.1Z"/><path d="M132.82,87.66a4.07,4.07,0,1,0,4.07-4A4,4,0,0,0,132.82,87.66Zm4.07-3.38a3.39,3.39,0,1,1-3.41,3.38A3.38,3.38,0,0,1,136.89,84.28Z"/><path d="M54.91,47.48C57,49.9,59.65,54,62.08,52.09s.89-5.16-.22-6.48-3.63-3.78-9.27-3.19c-4.2.44-6.63,3.3-8,4.73s-5.52,6.26-4.86,15.6c.49,6.84,2.54,13.73,2.54,17S42,86,39.23,87.46s-7.73-.1-11.26-6a3.23,3.23,0,0,0-4.64-.88c-1.54,1.32-1.21,4.73.44,6.6a12,12,0,0,0,13.58,3.62c7.29-2.64,11.82-12.3,10.93-19S43.65,52.2,46.74,48.47,53.47,45.83,54.91,47.48Z"/><path d="M96.2,81.64c-.33,1.1-2.32,10.44,2.32,10.44s9.16-7.47,10.81-9.78c-.29,2.35-2.17,9.78,2.65,9.78,4.42,0,7.84-6.59,9.5-8.57l-5,11.32c-2.54,5.71-4.64,5.6-6.29,5.49s-5.3-2.53-7-3.52-3.75-1.32-4.63-.55-1.11,3.63,1.32,5.06,6.63,3,14.35-.66,12-12.74,13.69-16.59l11.26-26h-6.84l-6.29,14.5c-1.44,3.3-7.73,15.71-10.05,15.71s.55-6.92,1.54-9.33L126.67,58h-6.85L114,71.54c-2,4.72-8.72,16.69-11.15,16.69s.66-7.58,2.21-11.31l14.9-34.28h-7L100.72,71.21c-3,6.81-9.61,17-11.26,17s0-5.82,1.66-9.77L100,58h-6.4l-2,4.73c.11-1.43.33-5.5-2.65-5.5-5.08,0-11.26,8-14,12.75-3.1,5.31-12.37,19.22-17.22,19.88-3.09-.22-1.55-9.55-.78-11.64,1.88.66,5.32-.42,7.18-1.43,1.21-.66,9.38-7.14,9.38-14,0-6.63-4.08-6.26-6.29-5.72-10.78,3.5-18.25,17.53-17.55,28.35.18,2.82,1.91,6.59,5.63,6.59,6.4,0,13.36-11,14.9-12.85-.33,1.2-3.2,12.85,2.21,12.85,4.86,0,9.83-7.91,10.71-9.34-.11,1-1.88,9.34,2.1,9.34C89.79,92.08,94.43,84.06,96.2,81.64ZM68.93,58.57c2.57.28-3.6,13.79-7.51,16.81-1,.77-2.43,2.2-3.86,1.32C57.67,73.73,64.84,58.13,68.93,58.57Zm7.51,29.66c-2.65,0,1.43-11.64,2.87-14.72s7.94-14.39,10.26-14c1.44.44-.11,7.36-3.09,14C84,79,79.08,88.23,76.44,88.23Z"/><path d="M136,87.87h.85L138,90h.75l-1.16-2.1a1.16,1.16,0,0,0,1.22-1.25c0-1-.74-1.2-1.57-1.2h-1.92V90H136Zm0-1.79h1.14c.55,0,1,0,1,.62s-.84.51-1.47.51H136Z"/></g></g></svg>