<svg xmlns="http://www.w3.org/2000/svg" viewBox="0 0 353.75 221.1"><title>simmons</title><g id="Capa_2" data-name="Capa 2"><g id="Capa_2-2" data-name="Capa 2"><path d="M343,25.73a549,549,0,0,0-332.22,0C4.83,27.67,0,34.27,0,40.25V180.84c0,6,4.83,12.59,10.77,14.52a549,549,0,0,0,332.22,0c5.93-1.93,10.76-8.53,10.76-14.52V40.25C353.75,34.27,348.92,27.67,343,25.73ZM329,172.85c-26,11.46-72.64,26.55-152.1,26.55-59,0-106.49-8.43-152.76-22.81,3.68-2.65,17.15-16.25,20.83-18.91l18.85,1.68c-5.25,18.86,47.37,29.76,113.08,29.76,38.63,0,110-11.46,113.37-20.32,4.95-13.18-20.26-18.29-60.53-18.29-30.63,0-181,5.64-202.4-11.36-11.23-8.9-9.58-87.8-2.54-90.91,26-11.45,72.62-26.54,152.1-26.54,59,0,106.48,8.42,152.75,22.8C326,47.16,312.48,60.76,308.8,63.42L290,61.74C295.2,42.87,242.59,32,176.88,32,138.24,32,66.84,43.44,63.5,52.3,58.56,65.48,83.76,70.59,124,70.59c30.65,0,181-5.64,202.4,11.35C337.67,90.85,336,169.75,329,172.85Z"/><path d="M59.75,106.59c-6.38-2.43-9.3-3.73-9.3-7.17,0-2.44,2-5.43,7.2-5.43A11.86,11.86,0,0,1,69,101.51l-.34-8.37a25.64,25.64,0,0,0-10.26-2.09c-6.18,0-14.81,3-14.81,10.74,0,4.29,2.73,7.34,9,10.23s12.09,3.5,12.09,8.93c0,2.77-2,6.78-8.76,6.78-7.06,0-11.14-5.31-12.43-9.33l.34,9.56a33.54,33.54,0,0,0,13,2.7c8.35,0,15.82-4.8,15.82-11.86C72.65,110.94,66.07,109.08,59.75,106.59Z"/><path d="M301.07,106.59c-6.38-2.43-9.3-3.73-9.3-7.17,0-2.44,2-5.43,7.2-5.43a11.86,11.86,0,0,1,11.34,7.52L310,93.14a25.64,25.64,0,0,0-10.26-2.09c-6.18,0-14.8,3-14.8,10.74,0,4.29,2.71,7.34,9,10.23S306,115.52,306,121c0,2.77-2,6.78-8.76,6.78-7.06,0-11.14-5.31-12.43-9.33l.34,9.56a33.54,33.54,0,0,0,13,2.7c8.35,0,15.82-4.8,15.82-11.86C314,110.94,307.38,109.08,301.07,106.59Z"/><path d="M89,91.67H78.31a2.58,2.58,0,0,1,1.54,2.54v33.35a2.68,2.68,0,0,1-1.54,2.54H89a2.59,2.59,0,0,1-1.54-2.54V94.21A2.49,2.49,0,0,1,89,91.67Z"/><path d="M140.2,91.67h-10l-11.4,25.94L107,91.67H96.58a3.16,3.16,0,0,1,1.89,2.54v33.35a2.78,2.78,0,0,1-1.54,2.54h6.56a2.69,2.69,0,0,1-1.65-2.54v-29l.42,1.52,14.3,30.87,14.19-31.77.53-1.3a7.89,7.89,0,0,0-.12,1.3v28.43a2.68,2.68,0,0,1-1.54,2.54H140.2a2.69,2.69,0,0,1-1.53-2.54V94.21A2.58,2.58,0,0,1,140.2,91.67Z"/><path d="M189.56,91.67h-10l-11.41,25.94L156.34,91.67h-10.4a3.18,3.18,0,0,1,1.89,2.54v33.35a2.78,2.78,0,0,1-1.54,2.54h6.56a2.69,2.69,0,0,1-1.65-2.54v-29l.41,1.52,14.31,30.87L180.1,99.13l.54-1.3a7.89,7.89,0,0,0-.12,1.3v28.43A2.68,2.68,0,0,1,179,130.1h10.58a2.7,2.7,0,0,1-1.54-2.54V94.21A2.59,2.59,0,0,1,189.56,91.67Z"/><path d="M217,91.05c-14.19-.17-22.34,9.72-22.52,19.5-.24,11.59,9.69,20,21.58,20.11,10.69.12,22.1-6.44,22.34-19.66C238.57,98.17,227.1,91.16,217,91.05Zm-.42,36.4c-6.8,0-13.89-5.48-13.89-17.52.12-10,6-15.94,13.77-15.94s13.72,6.44,13.6,17.35C230.05,121.57,224.32,127.45,216.57,127.45Z"/><path d="M273.5,94.21v22.33L251.69,91.67H241.52a9.5,9.5,0,0,1,2.66,2.15c1.12,1.3,1.07,1.35,1.07,3.56v30.18a2.81,2.81,0,0,1-1.54,2.54h6.56a2.7,2.7,0,0,1-1.66-2.54V99.24c0,.45,28.38,32.44,28.38,32.44V94.21a2.67,2.67,0,0,1,1.53-2.54H272A2.58,2.58,0,0,1,273.5,94.21Z"/></g></g></svg>