<?xml version="1.0" encoding="UTF-8"?>
<svg width="98px" height="23px" viewBox="0 0 98 23" version="1.1" xmlns="http://www.w3.org/2000/svg" xmlns:xlink="http://www.w3.org/1999/xlink">
    <!-- Generator: Sketch 55.2 (78181) - https://sketchapp.com -->
    <title>Skf</title>
    <desc>Created with Sketch.</desc>
    <g id="Sistema-Online" stroke="none" stroke-width="1" fill="none" fill-rule="evenodd">
        <g id="Landing" transform="translate(-336.000000, -1019.000000)" fill="#0D0D0D">
            <g id="Clientes" transform="translate(0.000000, 980.000000)">
                <g id="Group" transform="translate(113.000000, 34.000000)">
                    <path d="M309.46996,10.4932887 C309.29311,10.3591974 309.204353,10.1360088 309.204353,9.91282031 L309.204353,8.43892967 C309.204353,8.26006702 309.160416,8.12619845 309.027061,8.0368785 C308.939187,7.90300994 308.806052,7.90300994 308.628981,7.90300994 L299.775622,7.90300994 C299.642708,7.90300994 299.509794,7.90300994 299.421258,8.0368785 C299.288344,8.12619845 299.244187,8.26006702 299.244187,8.43892967 L299.244187,13.0390188 C299.244187,13.1728873 299.288344,13.35175 299.421258,13.4853958 C299.509794,13.5749385 299.642708,13.6192644 299.775622,13.6192644 L302.96269,13.6192644 C303.095825,13.6192644 303.228297,13.5749385 303.317054,13.4853958 L303.493905,13.0390188 C303.493905,12.8158303 303.58244,12.5921962 303.759733,12.4585504 C303.936584,12.2796878 304.113655,12.1903678 304.379263,12.1903678 L311.196519,12.1903678 C311.461905,12.1903678 311.639198,12.2796878 311.81649,12.4585504 C311.949183,12.5921962 312.081877,12.8158303 312.081877,13.0390188 L312.081877,17.0584168 C312.081877,17.3263766 311.949183,17.5050166 311.81649,17.6836565 C311.639198,17.8622964 311.461905,17.9513936 311.196519,17.9513936 L304.379263,17.9513936 C304.113655,17.9513936 303.936584,17.8622964 303.759733,17.6836565 C303.58244,17.5050166 303.493905,17.3263766 303.493905,17.0584168 C303.493905,16.9243255 303.449526,16.7902342 303.317054,16.701137 C303.228297,16.5668229 303.095825,16.4779484 302.96269,16.4779484 L299.775622,16.4779484 C299.642708,16.4779484 299.509794,16.5668229 299.421258,16.701137 C299.288344,16.7902342 299.244187,16.9243255 299.244187,17.0584168 L299.244187,18.8000445 C299.244187,18.9786845 299.288344,19.0682272 299.421258,19.201873 C299.509794,19.2914157 299.642708,19.3807356 299.775622,19.3807356 C300.041009,19.3807356 300.218301,19.4700556 300.394931,19.6039242 C300.572224,19.8273354 300.66098,20.0059753 300.66098,20.2739352 L300.66098,27.1515718 C300.66098,27.3749831 300.572224,27.5981716 300.394931,27.7768115 C300.218301,27.91068 300.041009,28 299.775622,28 L291.541352,28 C291.275965,28 291.098673,27.91068 290.921822,27.7768115 C290.789129,27.5981716 290.655773,27.3749831 290.655773,27.1515718 L290.655773,20.2739352 C290.655773,20.0059753 290.789129,19.8273354 290.921822,19.6039242 C291.098673,19.4700556 291.275965,19.3807356 291.541352,19.3807356 C291.674487,19.3807356 291.80718,19.2914157 291.940094,19.201873 L292.117166,18.8000445 L292.117166,14.2001782 L291.940094,13.798127 C291.80718,13.7088071 291.674487,13.6192644 291.541352,13.6192644 C291.275965,13.6192644 291.098673,13.5303899 290.921822,13.35175 C290.789129,13.1728873 290.655773,12.9942474 290.655773,12.7262876 L290.655773,5.84842821 C290.655773,5.58046834 290.789129,5.40205117 290.921822,5.22341126 C291.098673,5.0895427 291.275965,5 291.541352,5 L319.784711,5 C320.006161,5 320.227611,5.0895427 320.360304,5.22341126 C320.536934,5.40205117 320.62547,5.58046834 320.62547,5.84842821 L320.62547,9.91282031 C320.62547,10.1360088 320.536934,10.3591974 320.360304,10.4932887 C320.227611,10.6719286 320.006161,10.7162544 319.784711,10.7162544 L310.089932,10.7162544 C309.824324,10.7162544 309.647032,10.6719286 309.46996,10.4932887 Z M264.9707,5 C265.192372,5 265.413603,5.0895427 265.546297,5.22341126 C265.723591,5.40205117 265.812348,5.58046834 265.812348,5.84865095 L265.812348,13.2622073 C265.812348,13.35175 265.856285,13.3960758 265.944822,13.3960758 L266.033358,13.35175 L274.046017,5.31273122 C274.178711,5.13386856 274.399942,5 274.709709,5 L282.058455,5 C282.279685,5 282.500695,5.0895427 282.67821,5.22341126 C282.855503,5.40205117 282.943598,5.58046834 282.943598,5.84865095 L282.943598,9.91282031 C282.943598,10.1360088 282.855503,10.3591974 282.67821,10.4932887 C282.500695,10.6719286 282.279685,10.7164772 282.058455,10.7164772 L274.665772,10.7164772 C274.444541,10.7164772 274.22309,10.8505685 274.046017,11.0739797 L271.610933,13.5303899 L271.566996,13.6192644 L271.610933,13.7088071 L276.879404,19.0682272 C277.011877,19.2914157 277.233329,19.3807356 277.543317,19.3807356 L284.891621,19.3807356 C285.15723,19.3807356 285.334303,19.4700556 285.511597,19.6039242 C285.644291,19.8273354 285.776985,20.0059753 285.776985,20.2739352 L285.776985,27.1515718 C285.776985,27.3749831 285.644291,27.5981716 285.511597,27.7768115 C285.334303,27.91068 285.15723,28 284.891621,28 L274.709709,28 C274.399942,28 274.178711,27.91068 274.046017,27.6872688 L266.033358,19.6486955 L265.944822,19.6039242 C265.856285,19.6039242 265.812348,19.6486955 265.812348,19.7380155 L265.812348,27.1515718 C265.812348,27.3749831 265.723591,27.5981716 265.546297,27.7768115 C265.413603,27.91068 265.192372,28 264.9707,28 L256.692653,28 C256.427264,28 256.24975,27.91068 256.073118,27.7768115 C255.939983,27.5981716 255.807288,27.3749831 255.807288,27.1515718 L255.807288,20.2739352 C255.807288,20.0059753 255.939983,19.8273354 256.073118,19.6039242 C256.24975,19.4700556 256.427264,19.3807356 256.692653,19.3807356 C256.825126,19.3807356 257.00242,19.2914157 257.091177,19.201873 C257.223871,19.0682272 257.267809,18.9786845 257.267809,18.8000445 L257.267809,14.2001782 C257.267809,14.0660869 257.223871,13.9322183 257.091177,13.798127 C257.00242,13.7088071 256.825126,13.6192644 256.692653,13.6192644 C256.427264,13.6192644 256.24975,13.5303899 256.073118,13.35175 C255.939983,13.1728873 255.807288,12.9942474 255.807288,12.7262876 L255.807288,5.84865095 C255.807288,5.58046834 255.939983,5.40205117 256.073118,5.22341126 C256.24975,5.0895427 256.427264,5 256.692653,5 L264.9707,5 Z M226.16037,5.22341126 C226.294026,5.0895427 226.47179,5 226.737994,5 L247.936746,5 C248.159062,5 248.381378,5.0895427 248.514591,5.22341126 C248.692356,5.40205117 248.781459,5.58069108 248.781459,5.84865095 L248.781459,9.91282031 C248.781459,10.1360088 248.692356,10.3591974 248.514591,10.4932887 C248.381378,10.6719286 248.159062,10.7164772 247.936746,10.7164772 L241.048481,10.7164772 C240.826165,10.7164772 240.60407,10.6719286 240.470636,10.4932887 C240.292649,10.3591974 240.204211,10.1360088 240.204211,9.91282031 L240.204211,8.43892967 C240.204211,8.26006702 240.159437,8.12619845 240.026446,8.0368785 C239.937342,7.90300994 239.80413,7.90300994 239.626143,7.90300994 L235.049039,7.90300994 C234.871497,7.90300994 234.782171,7.90300994 234.64918,8.0368785 C234.560076,8.12619845 234.471194,8.26006702 234.471194,8.43892967 L234.471194,13.0390188 C234.471194,13.1728873 234.560076,13.35175 234.64918,13.4853958 L235.049039,13.6192644 L250.825308,13.6192644 C251.047625,13.6192644 251.269941,13.7088071 251.403154,13.8426756 C251.58114,14.0660869 251.62547,14.2449495 251.62547,14.5126867 L251.62547,27.1515718 C251.62547,27.3749831 251.58114,27.5981716 251.403154,27.7768115 C251.269941,27.91068 251.047625,28 250.825308,28 L223.894205,28 C223.671888,28 223.449794,27.91068 223.272029,27.7768115 C223.094265,27.5981716 223.049713,27.3749831 223.049713,27.1515718 L223.049713,20.2739352 C223.049713,20.0059753 223.094265,19.8273354 223.272029,19.6041469 C223.449794,19.4700556 223.671888,19.3807356 223.894205,19.3807356 L230.782691,19.3807356 C231.004786,19.3807356 231.227102,19.4700556 231.360315,19.6041469 C231.493527,19.8273354 231.62674,20.0059753 231.62674,20.2739352 L231.62674,24.5610703 C231.62674,24.739933 231.671292,24.8738015 231.760617,24.963567 C231.893608,25.0972128 232.026821,25.1419842 232.160033,25.1419842 L242.470597,25.1419842 C242.648584,25.1419842 242.781796,25.0972128 242.915009,24.963567 C243.003891,24.8738015 243.048221,24.739933 243.048221,24.5610703 L243.048221,17.0584168 C243.048221,16.9243255 243.003891,16.7902342 242.915009,16.701137 C242.781796,16.5668229 242.648584,16.4779484 242.470597,16.4779484 L226.737994,16.4779484 C226.47179,16.4779484 226.294026,16.3884057 226.16037,16.2543144 C225.983049,16.0756745 225.894167,15.852486 225.894167,15.6290747 L225.894167,5.84865095 C225.894167,5.58069108 225.983049,5.40205117 226.16037,5.22341126 Z" id="Skf"></path>
                </g>
            </g>
        </g>
    </g>
</svg>