<?xml version="1.0" encoding="UTF-8"?>
<svg width="141px" height="20px" viewBox="0 0 141 20" version="1.1" xmlns="http://www.w3.org/2000/svg" xmlns:xlink="http://www.w3.org/1999/xlink">
    <!-- Generator: Sketch 55.2 (78181) - https://sketchapp.com -->
    <title>Sommiercenter</title>
    <desc>Created with Sketch.</desc>
    <g id="Sistema-Online" stroke="none" stroke-width="1" fill="none" fill-rule="evenodd">
        <g id="Landing" transform="translate(-740.000000, -1021.000000)" fill="#0D0D0D">
            <g id="Clientes" transform="translate(0.000000, 980.000000)">
                <g id="Group" transform="translate(113.000000, 34.000000)">
                    <path d="M645.363592,22.8018375 C646.25619,22.8018375 646.459832,21.9603725 646.459832,18.7485004 C646.459832,15.5357416 646.25619,14.6951633 645.363592,14.6951633 C644.471291,14.6951633 644.267057,15.5357416 644.267057,18.7485004 C644.267057,21.9603725 644.471291,22.8018375 645.363592,22.8018375 Z M680.045427,11.4560994 C681.822346,11.4560994 683.444981,12.4350007 683.444981,14.9845185 L683.444981,25.750955 L678.448506,25.750955 L678.448506,16.5300121 C678.448506,15.4742647 678.113634,15.1651068 677.4699,15.1651068 C676.800157,15.1651068 676.465285,15.7316992 676.465285,16.5300121 L676.465285,25.750955 L671.46881,25.750955 L671.46881,16.5300121 C671.46881,15.4742647 671.133642,15.1651068 670.490204,15.1651068 C670.155037,15.1651068 669.903809,15.306681 669.736521,15.5484507 L669.736521,25.6572619 L669.485293,25.6572619 L669.485293,25.750955 L664.488226,25.750955 L664.488226,15.4077632 C664.327736,15.2460908 664.107543,15.1789983 663.82203,15.1789983 C663.15938,15.1789983 662.827759,15.7399749 662.827759,16.5303077 L662.827759,25.6572619 L657.88212,25.6572619 L657.88212,16.5303077 C657.88212,15.4852005 657.5505,15.1789983 656.913564,15.1789983 C656.250914,15.1789983 655.918998,15.7399749 655.918998,16.5303077 L655.918998,25.6572619 L650.973063,25.6572619 L650.973063,22.6191802 C650.347063,24.632844 648.854475,26.0137096 645.363592,26.0137096 C641.826011,26.0137096 640.341699,24.5950121 639.731068,22.5373095 C639.024379,24.9869273 637.027267,26.0137096 633.354909,26.0137096 C629.454673,26.0137096 627.312735,24.6884097 627.312735,20.6862048 L627.312735,20.2014831 L632.258669,20.2014831 L632.258669,21.0426526 C632.258669,21.9346586 632.640831,22.6487364 633.533724,22.6487364 C634.476862,22.6487364 634.782769,21.8329853 634.782769,21.0426526 C634.782769,19.8704537 634.349179,19.6147926 633.686529,19.2326309 C632.998166,18.8501737 632.08015,18.493726 631.16243,18.0344226 C628.408974,16.6576949 627.491255,15.6640155 627.491255,12.9611011 C627.491255,10.4375928 628.256465,9.06056952 629.428959,8.2194001 C630.295547,7.60788234 631.596019,7.09744679 633.584265,7.09744679 C638.733841,7.09744679 639.60102,9.64726007 639.60102,12.6806128 L634.807892,12.6806128 L634.807892,11.9417078 C634.807892,11.1764978 634.476862,10.4630112 633.609683,10.4630112 C632.84536,10.4630112 632.437484,11.1002428 632.437484,11.8397389 C632.437484,14.7962455 637.503417,14.0987192 639.360728,17.2848774 C639.554026,14.0638429 640.609478,11.5081183 645.363592,11.5081183 C648.854475,11.5081183 650.347063,12.8886884 650.973063,14.8961454 L650.973063,11.8648617 L655.765897,11.8648617 L655.765897,13.4458227 L655.817324,13.4458227 C656.556229,12.0945133 657.80557,11.5081183 659.462786,11.5081183 C660.788382,11.5081183 662.037426,12.069095 662.751504,13.4458227 C663.160562,12.6711548 663.751095,12.1553991 664.488226,11.849788 L664.488226,11.8163895 L664.516305,11.83767 C665.058366,11.618363 665.676681,11.5081183 666.371252,11.5081183 C667.67202,11.5081183 668.884416,12.04279 669.430614,13.3385337 C670.182228,12.0303764 671.42418,11.4560994 673.065731,11.4560994 C674.404627,11.4560994 675.666676,12.0226918 676.388143,13.4136065 C677.108723,12.0487012 678.371069,11.4560994 680.045427,11.4560994 Z M683.49833,10.7094803 L683.49833,7.1544607 L688.495101,7.1544607 L688.495101,10.7094803 L683.49833,10.7094803 Z M755.621189,20.8574239 L758.69533,20.8574239 L758.69533,19.5950786 L753.457971,19.5950786 L753.457971,21.4240162 C753.457971,22.1706058 753.509399,23.1755165 754.539433,23.1755165 C755.518334,23.1755165 755.621189,22.2737569 755.621189,20.8574239 Z M753.457971,16.1438013 L753.457971,16.9681236 L755.621189,16.9681236 L755.621189,16.1438013 C755.621189,14.778896 755.312623,14.3925965 754.51431,14.3925965 C753.792843,14.3925965 753.457971,14.778896 753.457971,16.1438013 Z M747.996872,21.2697328 C747.996872,22.1348428 748.122486,22.5211423 748.861391,22.550994 C748.538638,21.4340653 748.461496,20.1371393 748.461496,18.7710518 C748.461496,17.4351116 748.536569,16.1636039 748.846318,15.0620444 L747.996872,15.0620444 L747.996872,21.2697328 Z M726.384789,20.8574239 L730.42985,20.8574239 L730.42985,19.5950786 L724.22157,19.5950786 L724.22157,21.4240162 C724.22157,22.1706058 724.273294,23.1755165 725.303327,23.1755165 C726.281933,23.1755165 726.384789,22.2737569 726.384789,20.8574239 Z M724.22157,16.1438013 L724.22157,16.9681236 L726.384789,16.9681236 L726.384789,16.1438013 C726.384789,14.778896 726.076222,14.3925965 725.278205,14.3925965 C724.556442,14.3925965 724.22157,14.778896 724.22157,16.1438013 Z M695.2695,20.8574239 L699.313971,20.8574239 L699.313971,19.5950786 L693.105987,19.5950786 L693.105987,21.4240162 C693.105987,22.1706058 693.15771,23.1755165 694.187448,23.1755165 C695.166645,23.1755165 695.2695,22.2737569 695.2695,20.8574239 Z M693.105987,16.1438013 L693.105987,16.9681236 L695.2695,16.9681236 L695.2695,16.1438013 C695.2695,14.778896 694.960934,14.3925965 694.162621,14.3925965 C693.441154,14.3925965 693.105987,14.778896 693.105987,16.1438013 Z M766.47127,11.508207 C767.006533,11.508207 767.159634,11.5593392 767.312735,11.5847576 L767.312735,16.0968069 C767.13392,16.071093 766.929687,16.0462658 766.700331,16.0205519 C766.47127,15.994838 766.267037,15.994838 765.757192,15.994838 C764.049731,15.994838 763.641855,16.8868441 763.641855,18.5183463 L763.641855,25.657055 L758.69533,25.657055 L758.69533,24.8670178 C758.683212,24.877658 758.672867,24.8903672 758.660453,24.9007119 C757.681848,25.7250342 756.26581,26.1110382 754.565442,26.1110382 C752.108731,26.1110382 750.633285,25.433019 749.748077,24.3355973 L749.748077,25.8024715 C749.336064,25.8536037 748.022882,25.9564593 747.275701,25.9564593 C744.41673,25.9564593 743.000693,25.8536037 743.000693,22.7114842 L743.000693,15.0620444 L742.406613,15.0620444 L742.406613,25.7507481 L737.409546,25.7507481 L737.409546,16.5298052 C737.409546,15.4743533 737.07497,15.1648999 736.430645,15.1648999 C735.761197,15.1648999 735.426621,15.7317878 735.426621,16.5298052 L735.426621,25.7507481 L730.42985,25.7507481 L730.42985,23.5298954 C730.183647,24.0831874 729.850844,24.541604 729.424053,24.9007119 C728.445447,25.7250342 727.029409,26.1110382 725.329041,26.1110382 C721.654023,26.1110382 720.17178,24.5959875 719.588045,22.4209468 C718.848254,24.7946051 717.046803,26.1110382 713.764292,26.1110382 C707.144885,26.1110382 707.144885,22.4280403 707.144885,16.5558147 C707.144885,16.3657683 707.145477,16.183111 707.145772,15.9969069 C706.980849,15.9898135 706.781049,15.9892223 706.448837,15.9892223 C704.723346,15.9892223 704.311037,16.8903908 704.311037,18.53874 L704.311037,25.7507481 L699.313971,25.7507481 L699.313971,23.5298954 C699.068063,24.0831874 698.73526,24.541604 698.308764,24.9007119 C697.329863,25.7250342 695.91353,26.1110382 694.213457,26.1110382 C690.583956,26.1110382 689.093733,24.6323416 688.495219,22.5004529 L688.495219,25.7507481 L683.498153,25.7507481 L683.498153,11.8164782 L688.495219,11.8164782 L688.495219,15.0596799 C689.093733,12.9345892 690.583956,11.4558925 694.213457,11.4558925 C697.19952,11.4558925 698.625902,12.440114 699.313971,13.9980212 L699.313971,11.8164782 L704.156458,11.8164782 L704.156458,13.8768408 L704.20759,13.8768408 C704.697337,12.5376494 705.804807,11.4558925 707.170008,11.4558925 C707.266953,11.4558925 707.33907,11.4591437 707.413551,11.4620993 C707.919849,8.68647671 709.400319,7 713.764292,7 C719.250513,7 719.893952,9.96241782 719.893952,12.8210934 L719.893952,14.1602847 L714.897772,14.1602847 L714.897772,12.6665145 C714.897772,11.8682015 714.897772,10.4004407 713.841433,10.4004407 C712.501946,10.4004407 712.450519,11.3273231 712.450519,16.5558147 C712.450519,21.9391807 712.579088,22.7114842 713.841433,22.7114842 C714.665756,22.7114842 715.000628,21.8871618 715.000628,19.5950786 L715.000628,18.17845 L719.231893,18.17845 C719.299577,14.5193926 720.09789,11.4558925 725.329041,11.4558925 C728.315104,11.4558925 729.741191,12.440114 730.42985,13.9980212 L730.42985,11.8164782 L735.272042,11.8164782 L735.272042,13.4136952 L735.323174,13.4136952 C736.070651,12.0487899 737.3327,11.4558925 739.006763,11.4558925 C739.951675,11.4558925 740.843977,11.744361 741.480913,12.3863217 L741.480913,11.8164782 L743.000693,11.8164782 L743.000693,7.72117125 L747.996872,7.72117125 L747.996872,11.8164782 L749.748077,11.8164782 L749.748077,13.22956 C750.633285,12.1342073 752.108731,11.4558925 754.565442,11.4558925 C756.555461,11.4558925 757.845589,11.8980533 758.69533,12.6490763 L758.69533,11.8646548 L763.488459,11.8646548 L763.488459,13.9043281 L763.539,13.9043281 C764.024017,12.5787325 765.120256,11.508207 766.47127,11.508207 Z" id="Sommiercenter"></path>
                </g>
            </g>
        </g>
    </g>
</svg>