<svg id="Capa_1" data-name="Capa 1" xmlns="http://www.w3.org/2000/svg" viewBox="0 0 503.01 157.67"><defs><style>.cls-1{fill:#1d1d1b;}</style></defs><path class="cls-1" d="M210.51,3.9C194.15,21.27,188.93,41,198.44,63.29c7,16.32,19.9,25.85,37.36,29.27-11.21-6.2-19.7-14.86-24.46-26.84a47,47,0,0,1,0-36.26c.1.67.27,1.32.31,2,.93,15.45,7.94,27.1,21.47,34.82a53.28,53.28,0,0,1,15.9,79.52,50,50,0,0,1-18.54,14.84c-.63.3-1.32.47-2.67.94,22.41-16.86,17.46-44.77,4.36-56.55-15-13.47-37.34-12.93-50.83,1.28-13.34,14-14.64,39.63,5,55a14.64,14.64,0,0,1-1.84-.6c-19.59-9.15-31.8-30.9-30.19-52.46,1.15-15.38,3.49-30.41,9.2-44.81A130.86,130.86,0,0,1,209.35,4.63C209.72,4.36,210.12,4.14,210.51,3.9Z" transform="translate(-7.57 -3.9)"/><path class="cls-1" d="M341.78,117.15c-.48.75-1,1.48-1.45,2.25-6.82,11.79-13.68,23.57-20.4,35.42a5.39,5.39,0,0,1-5.37,3.16c-12.63-.31-9.08,1.79-15.31-8.85-5.75-9.8-11.31-19.72-17-29.58a6.15,6.15,0,0,0-2.07-2.31c-.09,1-.26,2-.26,3.06,0,11.08,0,22.17,0,33.26,0,4-.36,4.35-4.35,4.38-2.73,0-5.45,0-8.18,0-2.17,0-3.34-.84-3.34-3.14q0-24.81,0-49.62c0-2.24,1-3.24,3.25-3.23,7.05,0,14.1,0,21.14,0,2.09,0,3.23,1,4.17,2.74q8.47,15.45,17.05,30.83c.48.87,1.05,1.68,1.86,3,.81-1.29,1.37-2.1,1.84-3,5.64-10.3,11.3-20.6,16.87-30.94a4.52,4.52,0,0,1,4.5-2.65q10.29.1,20.58,0c2.48,0,3.59,1,3.58,3.5q-.06,24.52,0,49.05c0,2.53-1.09,3.57-3.58,3.48-2.72-.08-5.45,0-8.18,0-4.21,0-4.54-.33-4.55-4.46,0-11,0-22,0-33,0-1.07-.11-2.14-.16-3.21Z" transform="translate(-7.57 -3.9)"/><path class="cls-1" d="M494.3,142v-3.59c0-10.72,0-21.43,0-32.15,0-4,.38-4.3,4.4-4.33,2.63,0,5.27,0,7.9,0,3.46,0,3.94.48,3.94,3.93q0,22.14,0,44.27c0,1.6,0,3.19,0,4.79,0,1.93-.86,3-2.89,3-7.43,0-14.86.14-22.27-.13-1.48-.06-3.26-1.39-4.27-2.64-9.5-11.66-18.85-23.44-28.25-35.17-.68-.86-1.44-1.65-2.74-3.12-.18,1.92-.39,3-.39,4.18,0,10.81,0,21.62,0,32.43,0,4.14-.34,4.45-4.55,4.47-2.82,0-5.64-.05-8.46,0-2.23.05-3.29-.92-3.29-3.18q0-24.81,0-49.63c0-2.26,1.06-3.21,3.29-3.19,7.23,0,14.48-.14,21.7.15a7.23,7.23,0,0,1,4.56,2.64c9.58,11.72,19,23.56,28.47,35.36.63.78,1.32,1.49,2,2.24Z" transform="translate(-7.57 -3.9)"/><path class="cls-1" d="M141.77,136.36a6.07,6.07,0,0,0,.92.53c6.82,2.47,8.15,4.34,8.18,11.59,0,2.16,0,4.32,0,6.48,0,2-.93,3-2.91,2.95H136.66c-2,0-2.83-1.09-2.87-3a50,50,0,0,0-.34-5.61c-.55-4.1-1.92-5.41-6.07-5.5-6-.13-12-.06-18-.07-2.81,0-5.63,0-8.45,0-2.13,0-3.08,1-3.06,3.11,0,2.63-.07,5.26,0,7.89,0,2.27-1,3.24-3.27,3.21-3.19-.05-6.39,0-9.58,0-3.68,0-4.09-.41-4.1-4q0-15.07,0-30.15c0-5.92,0-11.84,0-17.76,0-3.53.47-4,3.85-4q25.36,0,50.73,0a27.53,27.53,0,0,1,5,.53c5.87,1.16,9.77,4.59,10.47,10.62A63.82,63.82,0,0,1,151,126a10,10,0,0,1-7.33,9.1,11,11,0,0,0-1.54.67C142,135.86,142,136.08,141.77,136.36Zm-27.19-20.75v0c-4.49,0-9,0-13.49,0-2.21,0-3.31.91-3.27,3.19.06,2.81,0,5.62,0,8.43,0,1.82.85,2.87,2.7,2.86,9.36-.08,18.74,0,28.09-.37,4.66-.2,5.92-2.38,5.71-7.83-.18-4.34-1.77-6-6.27-6.2S119.08,115.61,114.58,115.61Z" transform="translate(-7.57 -3.9)"/><path class="cls-1" d="M396.44,157.94c-9,0-18.05,0-27.07,0-4,0-4.32-.37-4.33-4.4q0-23.68,0-47.37c0-3.79.42-4.21,4.24-4.21q27.06,0,54.13,0c3.79,0,4.16.4,4.21,4.24,0,1.59,0,3.19,0,4.79-.08,3.39-.54,3.9-4,3.91-11.65,0-23.3,0-35,0-1,0-2.07,0-3.1,0-2.56-.13-3.61,1.15-3.46,3.61,0,.46,0,.93,0,1.4,0,3.66.43,4.1,4,4.11,11.18,0,22.37,0,33.55,0,4.4,0,4.66.29,4.7,4.61.05,6.69.05,6.69-6.57,6.7q-15.65,0-31.3,0c-4.14,0-4.41.31-4.43,4.55v.28c0,4.91.21,5.15,5,5.16q17.49,0,35,0c.94,0,1.88,0,2.82,0a2.41,2.41,0,0,1,2.68,2.59c0,.29,0,.57,0,.85,0,10.63.85,9-8.63,9.1C411.47,158,404,158,396.44,157.94Z" transform="translate(-7.57 -3.9)"/><path class="cls-1" d="M41.19,101.94c9.77,0,19.54,0,29.32,0,3.67,0,4.09.45,4.15,4,0,2.26-.06,4.51,0,6.77.08,2.43-1.09,3.36-3.43,3.34-5.73,0-11.46,0-17.2,0-3.79,0-4.21.43-4.22,4.23,0,11,0,22,0,33,0,4.35-.29,4.61-4.67,4.63h-7c-5.15,0-5.28-.13-5.29-5.16,0-10.62,0-21.24,0-31.86,0-4.6-.23-4.83-4.73-4.84-5.63,0-11.27-.06-16.91,0-2.48,0-3.67-.93-3.57-3.49.09-2.34.09-4.7,0-7-.11-2.67,1.1-3.67,3.72-3.65C21.26,102,31.23,101.94,41.19,101.94Z" transform="translate(-7.57 -3.9)"/><path class="cls-1" d="M207.5,150.63a19.1,19.1,0,0,1-19.39-19.24,19.34,19.34,0,0,1,38.68.17A19.09,19.09,0,0,1,207.5,150.63Z" transform="translate(-7.57 -3.9)"/></svg>